<svg width="38" height="34" viewBox="0 0 38 34" fill="none" xmlns="http://www.w3.org/2000/svg">
<path d="M27.2133 22.28C25.922 18.6459 22.507 14.4451 18.5382 13.0376L15.1324 13.4716C11.1637 14.8791 7.74863 19.0799 6.45737 22.714C6.37862 22.935 6.34981 23.1708 6.37303 23.4043C6.39624 23.6378 6.47089 23.8632 6.59161 24.0644C6.71233 24.2656 6.87612 24.4376 7.07122 24.5679C7.26632 24.6983 7.48787 24.7838 7.71996 24.8183C8.07235 24.8734 8.43297 24.8067 8.74245 24.6295C9.05193 24.4522 9.29182 24.1748 9.42261 23.843C9.66912 23.2133 9.99447 22.6174 10.3909 22.0696L11.3378 27.2625C11.4064 27.6385 11.5201 28.005 11.6763 28.3538C11.9595 28.9862 12.3773 29.5491 12.9004 30.0034C13.4235 30.4577 14.0395 30.7924 14.7052 30.9842L15.5143 31.2173C16.3762 31.4658 17.2908 31.4658 18.1526 31.2173L18.9617 30.9842C19.6275 30.7924 20.2435 30.4577 20.7666 30.0034C21.2897 29.5491 21.7074 28.9862 21.9906 28.3538C22.1469 28.005 22.2606 27.6385 22.3292 27.2625L23.3413 21.7276C23.7106 22.2502 24.0154 22.8155 24.2494 23.4111C24.3802 23.7429 24.62 24.0203 24.9295 24.1976C25.239 24.3748 25.5996 24.4414 25.952 24.3864C26.1842 24.3518 26.4059 24.2661 26.601 24.1355C26.7962 24.005 26.9599 23.8328 27.0806 23.6313C27.2012 23.4299 27.2756 23.2042 27.2986 22.9706C27.3215 22.7369 27.2924 22.5011 27.2133 22.28Z" fill="#62E0DA"/>
<path d="M10.3854 22.0647L10.3907 22.0699C9.99427 22.6189 9.66819 23.2154 9.42007 23.8454C9.28934 24.177 9.0495 24.4541 8.74011 24.631C8.43072 24.808 8.07026 24.8742 7.7182 24.8187C7.48617 24.7842 7.26468 24.6986 7.06969 24.5682C6.8747 24.4378 6.71106 24.2658 6.59056 24.0645C6.47005 23.8633 6.39568 23.6378 6.3728 23.4043C6.34992 23.1708 6.3791 22.9352 6.45824 22.7144C6.88477 21.5433 7.45088 20.4278 8.14432 19.3922C8.17063 19.3501 8.19693 19.3106 8.22324 19.2686L10.3854 22.0647Z" fill="#FFD5C8"/>
<path d="M25.9518 24.3842C25.5998 24.4397 25.2393 24.3735 24.9299 24.1966C24.6205 24.0196 24.3807 23.7425 24.25 23.411C24.0157 22.8151 23.7101 22.2499 23.3398 21.7275L25.7335 19.2812C25.7756 19.3444 25.8124 19.4075 25.8519 19.4706C26.4006 20.3578 26.8563 21.2992 27.2118 22.2799C27.2909 22.5007 27.3201 22.7364 27.2972 22.9698C27.2743 23.2033 27.2 23.4288 27.0795 23.63C26.959 23.8313 26.7953 24.0033 26.6003 24.1337C26.4053 24.2642 26.1839 24.3497 25.9518 24.3842Z" fill="#FFD5C8"/>
<path d="M20.83 31.7986C20.3846 31.6453 20.0097 31.336 19.7745 30.9279C19.5392 30.5198 19.4595 30.0403 19.5501 29.5781L19.957 27.5019C20.0197 27.182 20.1512 26.8796 20.3424 26.6156C20.5336 26.3515 20.7799 26.1323 21.0643 25.9729C21.3487 25.8136 21.6643 25.718 21.9893 25.6928C22.3143 25.6676 22.6409 25.7133 22.9464 25.8269C23.2439 25.9374 23.5145 26.1096 23.7406 26.3322C23.9667 26.5548 24.1431 26.8228 24.2583 27.1184C24.3734 27.4141 24.4246 27.7308 24.4086 28.0477C24.3926 28.3646 24.3097 28.6745 24.1654 28.957L23.2029 30.8412C22.989 31.2598 22.6312 31.5871 22.1953 31.763C21.7593 31.9389 21.2745 31.9515 20.83 31.7986Z" fill="#FFD5C8"/>
<path d="M12.8403 31.7986C13.2857 31.6453 13.6606 31.336 13.8958 30.9279C14.1311 30.5198 14.2108 30.0403 14.1202 29.5781L13.7133 27.5019C13.6506 27.182 13.5191 26.8796 13.3279 26.6156C13.1367 26.3515 12.8904 26.1323 12.606 25.9729C12.3216 25.8136 12.006 25.718 11.681 25.6928C11.356 25.6676 11.0294 25.7133 10.7238 25.8269C10.4264 25.9374 10.1558 26.1096 9.92967 26.3322C9.70358 26.5548 9.52716 26.8228 9.41203 27.1184C9.29689 27.4141 9.24564 27.7308 9.26165 28.0477C9.27766 28.3646 9.36057 28.6745 9.50491 28.957L10.4674 30.8412C10.6813 31.2598 11.0391 31.5871 11.475 31.763C11.911 31.9389 12.3957 31.9515 12.8403 31.7986Z" fill="#FFD5C8"/>
<path d="M23.8387 11.1485C24.7829 11.1485 25.5484 10.383 25.5484 9.43876C25.5484 8.49449 24.7829 7.729 23.8387 7.729C22.8944 7.729 22.1289 8.49449 22.1289 9.43876C22.1289 10.383 22.8944 11.1485 23.8387 11.1485Z" fill="#E8B5AD"/>
<path d="M9.83183 11.1485C10.7761 11.1485 11.5416 10.383 11.5416 9.43876C11.5416 8.49449 10.7761 7.729 9.83183 7.729C8.88756 7.729 8.12207 8.49449 8.12207 9.43876C8.12207 10.383 8.88756 11.1485 9.83183 11.1485Z" fill="#E8B5AD"/>
<path d="M16.8355 17.6753C20.7033 17.6753 23.8389 14.5398 23.8389 10.6719C23.8389 6.804 20.7033 3.66846 16.8355 3.66846C12.9676 3.66846 9.83203 6.804 9.83203 10.6719C9.83203 14.5398 12.9676 17.6753 16.8355 17.6753Z" fill="#FFD5C8"/>
<path d="M23.0907 18.8586C23.1782 18.8587 23.2638 18.8338 23.3376 18.7869C23.4114 18.7401 23.4703 18.6732 23.5074 18.5941C23.5446 18.5149 23.5584 18.4269 23.5473 18.3402C23.5362 18.2534 23.5007 18.1717 23.4448 18.1045C23.1055 17.6957 22.7483 17.3048 22.3834 16.9424C22.2968 16.8563 22.1796 16.8082 22.0575 16.8086C21.9354 16.809 21.8185 16.8579 21.7324 16.9445C21.6464 17.0311 21.5982 17.1483 21.5986 17.2704C21.599 17.3925 21.6479 17.5094 21.7345 17.5955C22.0791 17.9374 22.416 18.3057 22.7364 18.6924C22.7796 18.7445 22.8337 18.7864 22.895 18.8152C22.9562 18.8439 23.0231 18.8587 23.0907 18.8586Z" fill="#2C0D12"/>
<path d="M8.03579 19.5998C8.13668 19.6685 8.26074 19.6944 8.38069 19.6717C8.50064 19.649 8.60668 19.5796 8.6755 19.4788C8.83464 19.2455 8.99957 19.0153 9.16555 18.7949C9.23901 18.6972 9.27066 18.5744 9.25354 18.4534C9.23642 18.3324 9.17194 18.2231 9.07427 18.1497C8.9766 18.0762 8.85375 18.0446 8.73275 18.0617C8.61174 18.0788 8.50249 18.1433 8.42903 18.2409C8.25437 18.4729 8.08103 18.7144 7.91347 18.9604C7.87951 19.0104 7.85574 19.0666 7.84351 19.1258C7.83127 19.185 7.83082 19.246 7.84218 19.3054C7.85354 19.3648 7.87648 19.4214 7.9097 19.4719C7.94292 19.5224 7.98577 19.5659 8.03579 19.5998Z" fill="#2C0D12"/>
<path d="M27.6459 22.1811C26.6312 19.4905 24.9744 17.0885 22.8197 15.1842C23.0527 14.8727 23.2612 14.5437 23.4434 14.1999C23.5003 14.0918 23.5119 13.9655 23.4756 13.8488C23.4394 13.7321 23.3583 13.6346 23.2502 13.5777C23.142 13.5208 23.0157 13.5092 22.899 13.5455C22.7823 13.5817 22.6848 13.6628 22.6279 13.7709C22.4084 14.1874 22.1447 14.5792 21.8414 14.9394C21.8383 14.943 21.8341 14.9457 21.8309 14.9496C21.8278 14.9536 21.828 14.9543 21.8265 14.9565C20.8006 16.1629 19.3704 16.9544 17.8033 17.1829C16.2363 17.4115 14.6396 17.0614 13.3119 16.1981C11.9842 15.3349 11.0164 14.0176 10.5895 12.4926C10.1625 10.9676 10.3056 9.33929 10.9921 7.91216C11.6786 6.48502 12.8613 5.35679 14.3193 4.73841C15.7772 4.12004 17.4104 4.05387 18.9136 4.55229C20.4168 5.0507 21.687 6.07957 22.4866 7.4465C23.2863 8.81343 23.5606 10.4248 23.2584 11.9794C23.2381 12.098 23.265 12.2198 23.3334 12.3188C23.4018 12.4178 23.5063 12.4861 23.6244 12.5091C23.7425 12.532 23.8649 12.5078 23.9654 12.4416C24.0659 12.3753 24.1365 12.2724 24.162 12.1548C24.1962 11.9799 24.2217 11.8026 24.243 11.6245C24.7741 11.5243 25.2486 11.2295 25.5737 10.7977C25.8988 10.366 26.051 9.82846 26.0006 9.29037C25.9501 8.75228 25.7007 8.25239 25.301 7.88861C24.9013 7.52482 24.3802 7.32332 23.8398 7.32358C23.7225 7.32402 23.6055 7.33414 23.4899 7.35383C22.8978 6.18729 22.0098 5.19663 20.9147 4.48088C19.8197 3.76513 18.5559 3.34936 17.2498 3.27514C17.2165 3.26735 17.1823 3.26329 17.148 3.26304C16.9736 3.26304 16.8064 3.19376 16.683 3.07043C16.5597 2.94711 16.4904 2.77985 16.4904 2.60544C16.4905 2.49028 16.5362 2.37985 16.6176 2.29834C16.6989 2.21684 16.8093 2.17092 16.9244 2.17064C16.9922 2.17071 17.0571 2.19763 17.1051 2.24551C17.153 2.29338 17.18 2.35831 17.1801 2.42605C17.1801 2.54813 17.2286 2.66522 17.3149 2.75154C17.4013 2.83787 17.5184 2.88637 17.6404 2.88637C17.7625 2.88637 17.8796 2.83787 17.9659 2.75154C18.0523 2.66522 18.1008 2.54813 18.1008 2.42605C18.1003 2.11422 17.9763 1.81529 17.7557 1.59482C17.5352 1.37436 17.2363 1.25035 16.9244 1.25C16.5652 1.25035 16.2208 1.39316 15.9668 1.64712C15.7127 1.90108 15.5698 2.24543 15.5693 2.60465C15.5694 2.86153 15.6326 3.11444 15.7534 3.34116C14.5715 3.51641 13.4488 3.97216 12.4792 4.67027C11.5095 5.36839 10.7212 6.28857 10.1801 7.35383C10.0645 7.33414 9.94752 7.32402 9.83027 7.32358C9.28988 7.32288 8.76871 7.52402 8.3689 7.88758C7.96909 8.25114 7.71948 8.75091 7.66897 9.28893C7.61847 9.82696 7.77072 10.3644 8.09589 10.7961C8.42105 11.2277 8.89569 11.5223 9.42677 11.6222C9.59528 13.0238 10.1596 14.3484 11.0537 15.441C10.4258 15.9774 9.83754 16.5585 9.29341 17.1797C9.25358 17.2251 9.2231 17.278 9.20371 17.3353C9.18431 17.3925 9.17639 17.453 9.18038 17.5134C9.18437 17.5737 9.20021 17.6326 9.22698 17.6868C9.25375 17.741 9.29094 17.7894 9.33641 17.8292C9.38189 17.8691 9.43476 17.8995 9.49202 17.9189C9.54928 17.9383 9.60979 17.9463 9.67011 17.9423C9.73043 17.9383 9.78937 17.9224 9.84357 17.8957C9.89777 17.8689 9.94616 17.8317 9.98599 17.7862C10.509 17.189 11.0752 16.631 11.68 16.1167C12.3873 16.7947 13.2213 17.3267 14.1343 17.6822C15.0473 18.0377 16.0215 18.2097 17.001 18.1885C17.9806 18.1673 18.9464 17.9532 19.8431 17.5585C20.7399 17.1638 21.5501 16.5962 22.2273 15.8881C24.2583 17.6863 25.8203 19.9525 26.7779 22.4904C26.8782 22.7672 26.866 23.0722 26.7439 23.3401C26.6219 23.608 26.3998 23.8174 26.1252 23.9234C25.8506 24.0294 25.5454 24.0236 25.275 23.9072C25.0046 23.7908 24.7906 23.5732 24.6789 23.3008C24.4313 22.6697 24.1084 22.0708 23.7172 21.5172L23.7156 21.5153C23.1835 20.7518 22.5522 20.0625 21.8383 19.4655C21.7922 19.4264 21.7388 19.3968 21.6812 19.3784C21.6236 19.3599 21.563 19.353 21.5028 19.358C21.4425 19.363 21.3838 19.3798 21.3301 19.4075C21.2763 19.4351 21.2286 19.4731 21.1895 19.5193C21.1504 19.5654 21.1208 19.6188 21.1024 19.6763C21.084 19.7339 21.077 19.7945 21.082 19.8548C21.087 19.915 21.1038 19.9737 21.1315 20.0275C21.1592 20.0812 21.1972 20.129 21.2433 20.168C21.8478 20.6758 22.3879 21.2557 22.8515 21.8946L22.2329 25.2815C21.5931 25.2651 20.9683 25.4757 20.469 25.8759C19.9696 26.2762 19.6281 26.8402 19.5049 27.4682L19.0972 29.5443C19.0355 29.8622 19.0392 30.1894 19.1082 30.5058C19.0175 30.5386 18.9264 30.5702 18.8349 30.5968L18.0261 30.8285C17.247 31.0546 16.4197 31.0546 15.6406 30.8285L14.8343 30.5973C14.7423 30.571 14.6502 30.5389 14.5597 30.506C14.6287 30.1896 14.6325 29.8625 14.5708 29.5446L14.1641 27.4684C14.0408 26.8405 13.6992 26.2765 13.1999 25.8763C12.7005 25.4761 12.0756 25.2656 11.4359 25.2821L10.8801 22.2392C11.3309 21.6356 11.8497 21.0859 12.4262 20.601C12.4731 20.5622 12.5118 20.5145 12.5401 20.4607C12.5684 20.4069 12.5857 20.3479 12.5912 20.2874C12.5966 20.2268 12.5899 20.1657 12.5716 20.1077C12.5532 20.0497 12.5236 19.9959 12.4844 19.9494C12.4451 19.903 12.3971 19.8647 12.3429 19.837C12.2888 19.8092 12.2298 19.7924 12.1691 19.7876C12.1085 19.7827 12.0475 19.79 11.9897 19.8089C11.9319 19.8278 11.8784 19.8579 11.8323 19.8976C11.1471 20.4716 10.5368 21.1292 10.0155 21.8552C9.59598 22.4366 9.25132 23.0685 8.9896 23.7359C8.89587 23.969 8.72583 24.1634 8.50729 24.2874C8.28874 24.4113 8.03462 24.4574 7.78645 24.4182C7.62122 24.3946 7.46335 24.3343 7.32436 24.2419C7.18538 24.1495 7.06878 24.0272 6.98308 23.8839C6.89739 23.7407 6.84475 23.5801 6.82901 23.4139C6.81327 23.2478 6.83483 23.0802 6.89212 22.9234C7.16512 22.1661 7.5017 21.4333 7.89825 20.7328C7.95524 20.6265 7.96827 20.5022 7.93453 20.3864C7.90079 20.2706 7.82297 20.1727 7.7178 20.1137C7.61264 20.0547 7.48852 20.0394 7.37214 20.0709C7.25576 20.1025 7.15641 20.1784 7.09545 20.2825C6.67324 21.0287 6.31485 21.8093 6.02409 22.6159C5.92153 22.9007 5.88358 23.2048 5.91297 23.5061C5.94237 23.8075 6.03838 24.0985 6.19406 24.3581C6.34974 24.6178 6.5612 24.8396 6.81313 25.0075C7.06505 25.1753 7.35115 25.2851 7.65072 25.3289C8.10601 25.3979 8.57123 25.3106 8.97057 25.0813C9.36991 24.8521 9.6798 24.4943 9.84974 24.0663C9.93852 23.8346 10.04 23.6081 10.1538 23.3876L10.5336 25.463C10.1793 25.5991 9.85759 25.8081 9.58934 26.0766C9.32109 26.3451 9.11231 26.667 8.97657 27.0215C8.84083 27.3759 8.78116 27.7549 8.80144 28.1339C8.82172 28.5129 8.9215 28.8834 9.09429 29.2213L10.0567 31.1052C10.261 31.5011 10.5704 31.833 10.9508 32.0647C11.3313 32.2964 11.7682 32.4188 12.2137 32.4186C12.6068 32.4186 12.9938 32.3216 13.3404 32.1361C13.6869 31.9506 13.9824 31.6824 14.2004 31.3554C14.3259 31.4019 14.4527 31.4445 14.5808 31.4816L15.387 31.7128C16.3327 31.9873 17.337 31.9873 18.2828 31.7128L19.0919 31.4811C19.2192 31.444 19.3455 31.4022 19.4707 31.3551C19.6887 31.6822 19.9841 31.9504 20.3307 32.1358C20.6773 32.3213 21.0643 32.4183 21.4574 32.4183C21.9029 32.4185 22.3398 32.2961 22.7202 32.0644C23.1007 31.8327 23.41 31.5008 23.6143 31.105L24.5016 29.3689C24.5571 29.2601 24.5672 29.1338 24.5295 29.0176C24.4919 28.9014 24.4096 28.805 24.3009 28.7494C24.1921 28.6939 24.0657 28.6839 23.9496 28.7215C23.8334 28.7591 23.7369 28.8414 23.6814 28.9501L22.7942 30.6862C22.6307 31.0065 22.3569 31.2568 22.0233 31.3912C21.6898 31.5255 21.3189 31.5348 20.9791 31.4173C20.6392 31.2998 20.3533 31.0634 20.174 30.7517C19.9947 30.44 19.9341 30.074 20.0033 29.7211L20.4102 27.6449C20.4868 27.2582 20.689 26.9075 20.9854 26.6476C21.2818 26.3876 21.6558 26.2328 22.0492 26.2073C22.4426 26.1818 22.8335 26.287 23.161 26.5065C23.4884 26.7261 23.7342 27.0477 23.86 27.4214C23.8793 27.4787 23.9096 27.5317 23.9493 27.5772C23.989 27.6228 24.0373 27.6602 24.0915 27.6871C24.1456 27.714 24.2045 27.73 24.2648 27.7342C24.3252 27.7384 24.3857 27.7306 24.443 27.7114C24.5004 27.6921 24.5533 27.6618 24.5989 27.6221C24.6445 27.5823 24.6819 27.534 24.7088 27.4799C24.7357 27.4258 24.7517 27.3669 24.7559 27.3065C24.76 27.2462 24.7523 27.1857 24.733 27.1283C24.6066 26.7498 24.3978 26.4041 24.1216 26.1161C23.8454 25.8281 23.5087 25.6049 23.1359 25.4628L23.5728 23.0691C23.6648 23.2557 23.7472 23.4427 23.8198 23.6302C23.9689 24.0111 24.2297 24.338 24.568 24.568C24.9063 24.798 25.3062 24.9204 25.7152 24.9191C25.8172 24.918 25.9189 24.9102 26.0198 24.8957C26.3192 24.8511 26.6049 24.7408 26.8565 24.5726C27.1081 24.4044 27.3192 24.1825 27.4747 23.9229C27.6303 23.6632 27.7263 23.3724 27.7559 23.0712C27.7855 22.77 27.7479 22.466 27.6459 22.1811ZM25.0892 9.49365C25.0884 9.74341 25.0124 9.98714 24.871 10.193C24.7296 10.3989 24.5295 10.5574 24.2967 10.6479C24.2889 9.82995 24.146 9.01893 23.8737 8.24763C24.1986 8.25639 24.5073 8.39143 24.7342 8.62407C24.9612 8.85671 25.0885 9.16865 25.0892 9.49365ZM8.58083 9.49365C8.58154 9.16865 8.70888 8.85671 8.93582 8.62407C9.16277 8.39143 9.47145 8.25639 9.79634 8.24763C9.52428 9.01809 9.38137 9.8282 9.37337 10.6452C9.14076 10.5553 8.94069 10.3973 8.7993 10.1918C8.65791 9.98636 8.58177 9.74305 8.58083 9.49365ZM12.6906 31.418C12.3508 31.5336 11.9809 31.5233 11.6481 31.389C11.3153 31.2548 11.0418 31.0054 10.8774 30.6865L9.91471 28.8026C9.79739 28.5747 9.73044 28.3242 9.71838 28.0681C9.70632 27.8121 9.74944 27.5564 9.84482 27.3185C9.9402 27.0805 10.0856 26.8659 10.2712 26.689C10.4568 26.5122 10.6782 26.3773 10.9205 26.2935C11.1627 26.2098 11.4202 26.179 11.6753 26.2034C11.9305 26.2278 12.1775 26.3068 12.3995 26.435C12.6215 26.5632 12.8133 26.7376 12.962 26.9464C13.1107 27.1552 13.2128 27.3935 13.2614 27.6452L13.6683 29.7214C13.7361 30.0744 13.6747 30.4401 13.4952 30.7516C13.3156 31.0631 13.0301 31.2996 12.6906 31.418Z" fill="#2C0D12"/>
<path d="M16.8348 15.5565C17.9503 15.5565 19.2487 14.9778 19.6338 13.6852C19.6676 13.5685 19.654 13.4432 19.5958 13.3366C19.5376 13.2299 19.4396 13.1506 19.3232 13.1159C19.2068 13.0812 19.0814 13.0939 18.9743 13.1513C18.8672 13.2086 18.7871 13.306 18.7516 13.4222C18.5017 14.2605 17.6087 14.6356 16.8348 14.6356C16.0609 14.6356 15.1679 14.2605 14.918 13.4222C14.8825 13.306 14.8024 13.2086 14.6953 13.1513C14.5882 13.0939 14.4628 13.0812 14.3464 13.1159C14.23 13.1506 14.132 13.2299 14.0738 13.3366C14.0156 13.4432 14.002 13.5685 14.0358 13.6852C14.4209 14.9778 15.7192 15.5565 16.8348 15.5565Z" fill="#2C0D12"/>
<path d="M20.6793 9.72213C20.709 9.77513 20.749 9.82172 20.7968 9.85922C20.8446 9.89671 20.8993 9.92437 20.9579 9.9406C21.0164 9.95683 21.0776 9.96131 21.1379 9.95378C21.1982 9.94624 21.2564 9.92685 21.3092 9.89671C21.3619 9.86657 21.4082 9.82629 21.4453 9.77818C21.4824 9.73007 21.5096 9.67509 21.5254 9.61641C21.5412 9.55773 21.5452 9.49651 21.5371 9.43628C21.5291 9.37606 21.5093 9.31801 21.4787 9.26549C21.3238 8.98221 21.0956 8.74583 20.8179 8.58116C20.5402 8.41649 20.2233 8.32959 19.9005 8.32959C19.5776 8.32959 19.2607 8.41649 18.983 8.58116C18.7053 8.74583 18.4771 8.98221 18.3222 9.26549C18.2917 9.31801 18.2718 9.37606 18.2638 9.43628C18.2558 9.49651 18.2598 9.55773 18.2755 9.61641C18.2913 9.67509 18.3185 9.73007 18.3556 9.77818C18.3927 9.82629 18.439 9.86657 18.4918 9.89671C18.5445 9.92685 18.6027 9.94624 18.663 9.95378C18.7233 9.96131 18.7845 9.95683 18.843 9.9406C18.9016 9.92437 18.9564 9.89671 19.0042 9.85922C19.052 9.82172 19.0919 9.77513 19.1216 9.72213C19.196 9.57993 19.3079 9.4608 19.4452 9.37768C19.5824 9.29456 19.7399 9.25062 19.9003 9.25062C20.0608 9.25062 20.2182 9.29456 20.3555 9.37768C20.4928 9.4608 20.6047 9.57993 20.6791 9.72213H20.6793Z" fill="#2C0D12"/>
<path d="M14.5485 9.72213C14.5782 9.77513 14.6181 9.82172 14.6659 9.85922C14.7137 9.89671 14.7685 9.92437 14.827 9.9406C14.8856 9.95683 14.9468 9.96131 15.0071 9.95378C15.0673 9.94624 15.1255 9.92685 15.1783 9.89671C15.2311 9.86657 15.2773 9.82629 15.3144 9.77818C15.3516 9.73007 15.3788 9.67509 15.3945 9.61641C15.4103 9.55773 15.4143 9.49651 15.4063 9.43628C15.3983 9.37606 15.3784 9.31801 15.3478 9.26549C15.193 8.98221 14.9647 8.74583 14.687 8.58116C14.4093 8.41649 14.0924 8.32959 13.7696 8.32959C13.4468 8.32959 13.1299 8.41649 12.8522 8.58116C12.5745 8.74583 12.3462 8.98221 12.1914 9.26549C12.1608 9.31801 12.1409 9.37606 12.1329 9.43628C12.1249 9.49651 12.1289 9.55773 12.1447 9.61641C12.1604 9.67509 12.1876 9.73007 12.2248 9.77818C12.2619 9.82629 12.3081 9.86657 12.3609 9.89671C12.4137 9.92685 12.4719 9.94624 12.5322 9.95378C12.5924 9.96131 12.6536 9.95683 12.7122 9.9406C12.7707 9.92437 12.8255 9.89671 12.8733 9.85922C12.9211 9.82172 12.961 9.77513 12.9907 9.72213C13.0651 9.57993 13.177 9.4608 13.3143 9.37768C13.4516 9.29456 13.609 9.25062 13.7695 9.25062C13.93 9.25062 14.0874 9.29456 14.2246 9.37768C14.3619 9.4608 14.4738 9.57993 14.5482 9.72213H14.5485Z" fill="#2C0D12"/>
<g clip-path="url(#clip0)">
<path d="M33.7894 20.0844C33.3007 18.9071 32.1398 18.0791 30.7858 18.0791C29.4318 18.0791 28.2709 18.9071 27.7822 20.0844H33.7894Z" fill="#FF7D97"/>
<path d="M27.7822 22.5752C28.2709 23.7525 29.4318 24.5806 30.7858 24.5806C32.1398 24.5806 33.3007 23.7526 33.7894 22.5752" fill="#FF9EB1"/>
<path d="M31.3838 27.9438V25.7266H30.1875V27.9438" fill="#FAF7F5"/>
<path d="M29.9062 24.5283V25.7266H31.6662V24.5619" fill="#CCF5FC"/>
<path d="M27.7822 22.5749C27.6231 22.1914 27.5352 21.7706 27.5352 21.3297C27.5352 20.8888 27.6231 20.468 27.7822 20.0845H33.7895C33.9486 20.468 34.0365 20.8888 34.0365 21.3297C34.0365 21.7706 33.9486 22.1914 33.7895 22.5749" fill="#FAF7F5"/>
<path d="M30.7861 27.9097C29.6718 27.9097 28.7686 28.813 28.7686 29.9272C28.7686 31.0415 29.6718 31.9448 30.7861 31.9448C31.9004 31.9448 32.8037 31.0415 32.8037 29.9272C32.8037 28.813 31.9004 27.9097 30.7861 27.9097ZM30.7861 30.7048C30.3574 30.7048 30.0086 30.356 30.0086 29.9272C30.0086 29.4985 30.3574 29.1497 30.7861 29.1497C31.2149 29.1497 31.5637 29.4985 31.5637 29.9272C31.5637 30.356 31.2149 30.7048 30.7861 30.7048Z" fill="#CCF5FC"/>
<path d="M34.318 21.3299C34.318 20.8629 34.2282 20.409 34.0511 19.9809C34.0505 19.9794 34.0499 19.978 34.0493 19.9765C33.4999 18.6527 32.2187 17.7974 30.7854 17.7974C29.3522 17.7974 28.071 18.6527 27.5216 19.9765C27.521 19.9779 27.5204 19.9794 27.5198 19.9808C27.3427 20.409 27.2529 20.8629 27.2529 21.3299C27.2529 21.7978 27.3431 22.2526 27.5209 22.6816C27.5211 22.6822 27.5213 22.6827 27.5216 22.6832C27.9163 23.6342 28.6886 24.3434 29.6237 24.6675V25.7265C29.6237 25.8821 29.7499 26.0083 29.9055 26.0083V27.8031C29.0729 28.1493 28.4861 28.9711 28.4861 29.9275C28.486 31.1954 29.5176 32.227 30.7854 32.227C32.0533 32.227 33.0849 31.1954 33.0849 29.9275C33.0849 28.9712 32.498 28.1493 31.6654 27.8032V26.0084C31.8211 26.0084 31.9473 25.8822 31.9473 25.7266V24.6675C32.8823 24.3435 33.6546 23.6342 34.0494 22.6833C34.0496 22.6827 34.0498 22.6822 34.05 22.6817C34.2278 22.2526 34.318 21.7979 34.318 21.3299ZM30.7854 18.361C31.8428 18.361 32.8017 18.9149 33.3327 19.8027H28.2382C28.7692 18.9149 29.7281 18.361 30.7854 18.361ZM32.5212 29.9275C32.5212 30.8846 31.7425 31.6633 30.7854 31.6633C29.8284 31.6633 29.0497 30.8846 29.0497 29.9275C29.0497 28.9705 29.8284 28.1918 30.7854 28.1918C31.7425 28.1918 32.5212 28.9705 32.5212 29.9275ZM31.1018 27.6498C30.9983 27.6356 30.8927 27.6281 30.7854 27.6281C30.6782 27.6281 30.5726 27.6355 30.4691 27.6498V26.0084H31.1017V27.6498H31.1018ZM31.3836 25.4447H30.1873V24.812C30.3825 24.8453 30.5825 24.8624 30.7855 24.8624C30.9885 24.8624 31.1884 24.8453 31.3836 24.812V25.4447H31.3836ZM30.7854 24.2987C29.7281 24.2987 28.7692 23.7448 28.2382 22.8569H29.5114C29.667 22.8569 29.7932 22.7308 29.7932 22.5751C29.7932 22.4195 29.667 22.2933 29.5114 22.2933H27.9763C27.8702 21.9844 27.8166 21.6611 27.8166 21.3299C27.8166 20.9986 27.8702 20.6753 27.9763 20.3665H33.5946C33.7006 20.6753 33.7543 20.9986 33.7543 21.3299C33.7543 21.6611 33.7006 21.9844 33.5946 22.2933H32.0595C31.9038 22.2933 31.7776 22.4195 31.7776 22.5751C31.7776 22.7308 31.9038 22.8569 32.0595 22.8569H33.3327C32.8017 23.7448 31.8428 24.2987 30.7854 24.2987Z" fill="black"/>
<path d="M29.2232 21.0479H28.6637C28.508 21.0479 28.3818 21.1741 28.3818 21.3297C28.3818 21.4853 28.508 21.6115 28.6637 21.6115H29.2232C29.3788 21.6115 29.505 21.4853 29.505 21.3297C29.505 21.174 29.3788 21.0479 29.2232 21.0479Z" fill="black"/>
<path d="M31.065 21.0479H30.5055C30.3498 21.0479 30.2236 21.1741 30.2236 21.3297C30.2236 21.4853 30.3498 21.6115 30.5055 21.6115H31.065C31.2206 21.6115 31.3468 21.4853 31.3468 21.3297C31.3468 21.174 31.2206 21.0479 31.065 21.0479Z" fill="black"/>
<path d="M32.3482 21.6115H32.9077C33.0634 21.6115 33.1896 21.4853 33.1896 21.3297C33.1896 21.1741 33.0634 21.0479 32.9077 21.0479H32.3482C32.1926 21.0479 32.0664 21.1741 32.0664 21.3297C32.0664 21.4853 32.1926 21.6115 32.3482 21.6115Z" fill="black"/>
<path d="M29.7266 29.9276C29.7266 30.5117 30.2018 30.9869 30.7859 30.9869C31.3701 30.9869 31.8453 30.5117 31.8453 29.9276C31.8453 29.3434 31.3701 28.8682 30.7859 28.8682C30.2018 28.8682 29.7266 29.3434 29.7266 29.9276ZM31.2816 29.9276C31.2816 30.2009 31.0592 30.4233 30.7859 30.4233C30.5126 30.4233 30.2902 30.2009 30.2902 29.9276C30.2902 29.6542 30.5126 29.4318 30.7859 29.4318C31.0592 29.4318 31.2816 29.6542 31.2816 29.9276Z" fill="black"/>
<path d="M31.0506 22.4673C31.0062 22.3607 30.8981 22.2909 30.7827 22.2935C30.6626 22.2963 30.5556 22.3788 30.5207 22.4934C30.487 22.6041 30.5263 22.7284 30.6186 22.7987C30.7132 22.8707 30.8453 22.8757 30.9448 22.8107C31.057 22.7372 31.1014 22.5911 31.0506 22.4673Z" fill="black"/>
</g>
<defs>
<clipPath id="clip0">
<rect width="14.4296" height="14.4296" fill="white" transform="translate(23.5703 17.7974)"/>
</clipPath>
</defs>
</svg>
