<svg width="178" height="165" viewBox="0 0 178 165" fill="none" xmlns="http://www.w3.org/2000/svg">
<path d="M0 160.449C0 162.773 2.1952 164.675 4.87573 164.675H162.885C165.568 164.675 167.761 162.773 167.761 160.449C167.761 158.124 165.566 156.223 162.885 156.223H4.87573C2.1952 156.22 0 158.124 0 160.449Z" fill="#B2C5CE"/>
<path d="M21.0746 91.5161C20.333 91.5161 19.6659 91.0059 19.4917 90.2542L4.91678 26.8324C4.71518 25.9563 5.26274 25.0852 6.13634 24.8836C7.01243 24.682 7.88354 25.2295 8.08514 26.1031L22.6601 89.525C22.8617 90.4011 22.3141 91.2722 21.4405 91.4738C21.3186 91.5012 21.1966 91.5161 21.0746 91.5161Z" fill="#8FA3C1"/>
<path d="M172.638 10.08C175.421 10.08 177.678 7.82352 177.678 5.04C177.678 2.25649 175.421 0 172.638 0C169.854 0 167.598 2.25649 167.598 5.04C167.598 7.82352 169.854 10.08 172.638 10.08Z" fill="#414042"/>
<path d="M132.462 136.162H24.8424C23.4959 136.162 22.4033 135.069 22.4033 133.723C22.4033 132.376 23.4959 131.284 24.8424 131.284H132.462C133.418 131.284 134.187 130.965 134.632 130.39C135.075 129.813 135.185 128.986 134.941 128.063L128.263 102.913C127.215 98.9654 127.526 92.8776 128.97 89.0571L158.707 10.4132C160.357 6.04768 164.362 2.75488 168.023 2.75488H172.76C174.106 2.75488 175.199 3.8475 175.199 5.19399C175.199 6.54048 174.106 7.6331 172.76 7.6331H168.023C166.612 7.6331 164.228 9.60182 163.269 12.138L133.53 90.7844C132.452 93.6342 132.193 98.719 132.975 101.663L139.652 126.814C140.285 129.198 139.864 131.587 138.498 133.364C137.131 135.141 134.928 136.162 132.462 136.162Z" fill="#8FA3C1"/>
<path d="M130.511 133.235H23.8669C23.2372 133.235 22.7295 132.725 22.7295 132.098C22.7295 131.471 23.2397 130.96 23.8669 130.96H130.511C131.88 130.96 133.022 130.46 133.724 129.552C134.426 128.643 134.625 127.414 134.281 126.087L127.855 101.283C126.907 97.6193 127.223 91.758 128.562 88.2188L158.299 9.57488C159.745 5.75195 163.302 2.75781 166.398 2.75781H171.134C171.764 2.75781 172.272 3.26804 172.272 3.89524C172.272 4.52493 171.762 5.03266 171.134 5.03266H166.398C164.258 5.03266 161.522 7.48172 160.427 10.3788L130.688 89.0252C129.51 92.1388 129.222 97.4924 130.055 100.713L136.482 125.517C137.007 127.541 136.666 129.467 135.521 130.946C134.381 132.424 132.599 133.235 130.511 133.235Z" fill="#BBD7EA"/>
<path d="M45.8437 147.586C45.8437 152.024 42.2472 155.62 37.8095 155.62C33.3718 155.62 29.7754 152.024 29.7754 147.586C29.7754 143.148 33.3718 139.552 37.8095 139.552C42.2447 139.552 45.8437 143.148 45.8437 147.586Z" fill="white" stroke="#414042" stroke-width="14" stroke-miterlimit="10"/>
<path d="M41.3013 147.586C41.3013 149.515 39.7358 151.078 37.8069 151.078C35.878 151.078 34.3125 149.515 34.3125 147.586C34.3125 145.657 35.8755 144.092 37.8069 144.092C39.7383 144.092 41.3013 145.655 41.3013 147.586Z" fill="#8BA9B2"/>
<path d="M38.8398 132.705V146.202C38.8398 147.813 37.5282 149.025 35.9228 148.9L29.2949 148.383C27.6896 148.258 26.3779 146.837 26.3779 145.229V132.708H38.8398V132.705Z" fill="#BBD7EA"/>
<path d="M130.591 147.586C130.591 152.024 126.994 155.62 122.557 155.62C118.119 155.62 114.522 152.024 114.522 147.586C114.522 143.148 118.119 139.552 122.557 139.552C126.994 139.552 130.591 143.148 130.591 147.586Z" fill="white" stroke="#414042" stroke-width="14" stroke-miterlimit="10"/>
<path d="M126.051 147.586C126.051 149.515 124.488 151.078 122.557 151.078C120.628 151.078 119.062 149.515 119.062 147.586C119.062 145.657 120.626 144.092 122.557 144.092C124.486 144.092 126.051 145.655 126.051 147.586Z" fill="#8BA9B2"/>
<path d="M123.587 132.705V145.227C123.587 146.837 122.271 148.154 120.66 148.154H114.05C112.44 148.154 111.123 146.837 111.123 145.227V132.705H123.587Z" fill="#BBD7EA"/>
<path d="M39.5044 92.6389C38.8623 92.6389 38.3023 92.1611 38.2177 91.5065L29.8898 27.7536C29.7977 27.0418 30.298 26.3897 31.0098 26.2951C31.7217 26.203 32.3737 26.7033 32.4683 27.4151L40.7937 91.168C40.8857 91.8798 40.3855 92.5319 39.6737 92.6265C39.6164 92.6364 39.5592 92.6389 39.5044 92.6389Z" fill="#8FA3C1"/>
<path d="M38.8546 91.9894C38.5335 91.9894 38.2523 91.7505 38.21 91.4244L29.8846 27.6715C29.8373 27.3156 30.0887 26.9895 30.4446 26.9422C30.8005 26.895 31.1266 27.1463 31.1739 27.5022L39.4992 91.2552C39.5465 91.6111 39.2951 91.9371 38.9392 91.9844C38.9093 91.9869 38.882 91.9894 38.8546 91.9894Z" fill="#BBD7EA"/>
<path d="M58.3081 93.5898C57.6112 93.5898 57.0338 93.0372 57.0089 92.3354L54.7166 28.7517C54.6917 28.0349 55.2517 27.4301 55.9685 27.4053C56.6828 27.3779 57.2901 27.9404 57.315 28.6572L59.6073 92.2408C59.6322 92.9576 59.0722 93.5624 58.3554 93.5873C58.3404 93.5898 58.323 93.5898 58.3081 93.5898Z" fill="#8FA3C1"/>
<path d="M57.6581 92.9404C57.3096 92.9404 57.0209 92.6641 57.0085 92.3132L54.7162 28.7296C54.7038 28.3712 54.985 28.07 55.3434 28.0551C55.7043 28.0426 56.003 28.3239 56.0179 28.6823L58.3102 92.2659C58.3226 92.6243 58.0414 92.9255 57.683 92.9404C57.673 92.9379 57.6656 92.9404 57.6581 92.9404Z" fill="#BBD7EA"/>
<path d="M75.9691 95.5081C75.9392 95.5081 75.9093 95.5081 75.8795 95.5056C75.1627 95.4558 74.6226 94.8361 74.6699 94.1193L79.2096 27.203C79.2569 26.4862 79.8816 25.9436 80.5959 25.9934C81.3127 26.0432 81.8528 26.6629 81.8055 27.3797L77.2658 94.296C77.2185 94.9804 76.6461 95.5081 75.9691 95.5081Z" fill="#8FA3C1"/>
<path d="M75.3172 94.8567C75.3023 94.8567 75.2873 94.8567 75.2724 94.8542C74.914 94.8293 74.6427 94.5207 74.6676 94.1623L79.2073 27.246C79.2322 26.8876 79.5408 26.6163 79.8992 26.6412C80.2576 26.6661 80.5289 26.9747 80.504 27.3331L75.9643 94.2494C75.9419 94.5954 75.6557 94.8567 75.3172 94.8567Z" fill="#BBD7EA"/>
<path d="M93.6325 96.8971C93.5578 96.8971 93.4831 96.8896 93.4085 96.8772C92.7016 96.7552 92.2262 96.0807 92.3482 95.3739L104.158 27.1584C104.28 26.4516 104.954 25.9762 105.661 26.0982C106.368 26.2201 106.843 26.8946 106.721 27.6015L94.9117 95.8169C94.8022 96.4516 94.2522 96.8971 93.6325 96.8971Z" fill="#BBD7EA"/>
<path d="M94.2822 96.2479C94.2449 96.2479 94.2076 96.2454 94.1702 96.238C93.8168 96.1757 93.5804 95.8397 93.6401 95.4863L96.1315 81.1005C96.1937 80.7471 96.5297 80.5082 96.8831 80.5704C97.2365 80.6326 97.473 80.9686 97.4132 81.322L94.9219 95.7078C94.8671 96.0239 94.5908 96.2479 94.2822 96.2479Z" fill="#8FA3C1"/>
<path d="M96.7715 81.8617C96.7341 81.8617 96.6968 81.8593 96.6595 81.8518C96.3061 81.7896 96.0696 81.4536 96.1293 81.1001L105.448 27.2705C105.51 26.917 105.846 26.6781 106.199 26.7403C106.553 26.8025 106.789 27.1386 106.73 27.492L97.4111 81.3217C97.3564 81.6377 97.0826 81.8617 96.7715 81.8617Z" fill="#8FA3C1"/>
<path d="M111.12 98.2736C111.006 98.2736 110.889 98.2587 110.774 98.2263C110.082 98.0347 109.674 97.3204 109.866 96.626L129.222 26.3796C129.413 25.6877 130.128 25.2795 130.822 25.4711C131.514 25.6628 131.922 26.3771 131.731 27.0715L112.374 97.3179C112.215 97.8953 111.693 98.2736 111.12 98.2736Z" fill="#BBD7EA"/>
<path d="M112.096 97.622C112.038 97.622 111.981 97.6145 111.921 97.5996C111.576 97.505 111.371 97.1466 111.469 96.8007L130.825 26.5543C130.919 26.2084 131.278 26.0043 131.624 26.1013C131.97 26.1959 132.174 26.5543 132.077 26.9003L112.72 97.1466C112.643 97.4329 112.382 97.622 112.096 97.622Z" fill="#8FA3C1"/>
<path d="M127.659 99.9762C127.617 99.9762 127.572 99.9737 127.529 99.9712L20.9503 91.5115C20.0543 91.4393 19.3873 90.6578 19.4594 89.7618C19.5316 88.8658 20.3131 88.1988 21.2091 88.271L127.788 96.7307C128.684 96.8029 129.351 97.5844 129.279 98.4804C129.209 99.3291 128.498 99.9762 127.659 99.9762Z" fill="#8FA3C1"/>
<path d="M21.7268 89.7263C21.356 89.7263 21.02 89.4699 20.9353 89.0941L6.68645 26.6479C6.5869 26.2098 6.86067 25.7743 7.29872 25.6747C7.73676 25.5752 8.17232 25.849 8.27187 26.287L22.5208 88.7332C22.6203 89.1713 22.3465 89.6068 21.9085 89.7064C21.8463 89.7188 21.7865 89.7263 21.7268 89.7263Z" fill="#C7E2ED"/>
<path d="M134.159 76.8884C134.132 76.8884 134.105 76.8884 134.077 76.8859L17.6669 69.6258C16.9501 69.581 16.405 68.9638 16.4498 68.247C16.4946 67.5302 17.1144 66.9851 17.8287 67.0299L134.239 74.29C134.956 74.3348 135.501 74.9521 135.456 75.6689C135.414 76.3583 134.841 76.8884 134.159 76.8884Z" fill="#8FA3C1"/>
<path d="M134.159 75.5904C134.147 75.5904 134.132 75.5904 134.12 75.5879L17.4057 68.3278C17.0473 68.3054 16.776 67.9968 16.796 67.6384C16.8184 67.28 17.1245 67.0062 17.4854 67.0286L134.197 74.2887C134.555 74.3111 134.827 74.6197 134.807 74.9781C134.787 75.3241 134.5 75.5904 134.159 75.5904Z" fill="#BBD7EA"/>
<path d="M141.816 56.403C141.796 56.403 141.779 56.403 141.759 56.4005L13.464 50.798C12.7472 50.7656 12.1897 50.1583 12.222 49.4415C12.2544 48.7247 12.8617 48.1672 13.5785 48.1996L141.873 53.8021C142.59 53.8344 143.148 54.4417 143.115 55.1585C143.085 55.8554 142.508 56.403 141.816 56.403Z" fill="#8FA3C1"/>
<path d="M141.808 55.1013C141.798 55.1013 141.789 55.1013 141.779 55.1013L13.1677 49.4988C12.8093 49.4839 12.5306 49.1802 12.5455 48.8218C12.5604 48.4634 12.8666 48.1872 13.2225 48.1996L141.833 53.8021C142.192 53.817 142.47 54.1207 142.456 54.4791C142.443 54.83 142.154 55.1013 141.808 55.1013Z" fill="#BBD7EA"/>
<path d="M127.982 98.1866C127.96 98.1866 127.94 98.1866 127.917 98.1841L21.6642 89.7243C21.2162 89.6895 20.8827 89.2962 20.9175 88.8507C20.9524 88.4027 21.3431 88.0692 21.7911 88.1041L128.044 96.5638C128.492 96.5987 128.826 96.9919 128.791 97.4374C128.756 97.8655 128.4 98.1866 127.982 98.1866Z" fill="#BBD7EA"/>
<path d="M32.2974 35.8242L31.0654 36.7376L32.061 44.3636L33.2756 43.3133L32.2974 35.8242Z" fill="#BBD7EA"/>
<path d="M57.0841 58.2549L55.8223 59.3027L56.101 66.4209L57.343 65.2288L57.0841 58.2549Z" fill="#BBD7EA"/>
<path d="M155.248 29.8821H5.20083C3.85434 29.8821 2.76172 28.7895 2.76172 27.443C2.76172 26.0965 3.85434 25.0039 5.20083 25.0039H155.246C156.592 25.0039 157.685 26.0965 157.685 27.443C157.685 28.7895 156.595 29.8821 155.248 29.8821Z" fill="#414042"/>
</svg>
