<svg width="35" height="35" viewBox="0 0 35 35" fill="none" xmlns="http://www.w3.org/2000/svg">
<g clip-path="url(#clip0)">
<path d="M29.5067 33.6033V34.4866H7.41895V33.6026C7.41895 32.4084 8.38703 31.4403 9.58119 31.4403H10.6767L9.93837 27.4771C9.62841 25.8151 10.3421 24.1907 11.6463 23.269C12.0739 22.9665 12.5652 22.7401 13.1044 22.6121L13.8927 22.4253H23.0323L23.8205 22.6121C24.3604 22.7401 24.8517 22.9665 25.2794 23.269C26.5829 24.1914 27.2966 25.8158 26.9866 27.4771L26.2483 31.4403H27.3438C28.5383 31.4403 29.5067 32.4087 29.5067 33.6033Z" fill="#FFB636"/>
<path d="M29.5062 33.6033V34.4866H27.7326C27.8804 34.4866 28.0008 34.3662 28.0008 34.2184V33.6033C28.0008 32.4087 27.0324 31.4403 25.8379 31.4403H24.7424L25.4807 27.4771C25.7907 25.8158 25.077 24.1914 23.7735 23.269C23.3458 22.9665 22.8545 22.7401 22.3146 22.6121L21.5264 22.4253H23.0317L23.82 22.6121C24.3599 22.7401 24.8512 22.9665 25.2788 23.269C26.5823 24.1914 27.296 25.8158 26.986 27.4771L26.2477 31.4403H27.3432C28.5378 31.4403 29.5062 32.4087 29.5062 33.6033Z" fill="#FF9C39"/>
<path d="M23.0322 22.4258V32.964C23.0322 33.3848 22.8618 33.7652 22.586 34.041C22.3103 34.3167 21.9298 34.4871 21.509 34.4871C20.6681 34.4871 19.9859 33.8049 19.9859 32.964V27.7541C19.9859 27.3333 19.8155 26.9528 19.5397 26.6771C19.264 26.4013 18.8835 26.2309 18.4627 26.2309C17.6211 26.2309 16.9396 26.9131 16.9396 27.7541V32.964C16.9396 33.3848 16.7692 33.7652 16.4934 34.041C16.2177 34.3167 15.8365 34.4871 15.4157 34.4871C14.5748 34.4871 13.8926 33.8049 13.8926 32.964V22.4258H23.0322Z" fill="#FFD85C"/>
<path d="M25.2796 23.269C23.3124 24.4801 20.9722 25.1835 18.463 25.1835C15.9539 25.1835 13.6137 24.4801 11.6465 23.269C12.0741 22.9665 12.5654 22.7401 13.1046 22.6121L13.8929 22.4253H23.0325L23.8208 22.6121C24.3607 22.7401 24.8519 22.9665 25.2796 23.269Z" fill="#FF9C39"/>
<path d="M23.0322 22.4258V24.3663C21.6144 24.8946 20.0735 25.184 18.4627 25.184C16.852 25.184 15.311 24.8939 13.8926 24.3656V22.4258H23.0322Z" fill="#FFB636"/>
<path d="M22.2852 4.46975L26.9097 0.681437C27.3952 0.286896 28.1212 0.632445 28.1212 1.25806V9.96767L22.2852 4.46975Z" fill="#FF9C39"/>
<path d="M14.6398 4.46975L10.0153 0.681437C9.52964 0.286896 8.80371 0.632445 8.80371 1.25806V9.96767L14.6398 4.46975Z" fill="#FF9C39"/>
<path d="M28.8656 13.6286C28.8656 18.896 24.4953 23.1972 18.9987 23.4606C18.8228 23.4695 18.6449 23.4736 18.4636 23.4736C12.7186 23.4736 8.06152 19.0657 8.06152 13.6286C8.06152 8.19147 12.7186 3.78418 18.4636 3.78418C18.6449 3.78418 18.8228 3.78829 18.9987 3.79718C24.4953 4.06062 28.8656 8.36116 28.8656 13.6286Z" fill="#FFD85C"/>
<path d="M28.865 13.6278C28.865 18.8952 24.4947 23.1964 18.998 23.4598C24.3825 23.1937 27.0175 18.8931 27.0175 13.6278C27.0175 8.36242 24.3825 4.06256 18.998 3.79639C24.4947 4.05982 28.865 8.36037 28.865 13.6278Z" fill="#FFB636"/>
<path d="M19.8336 18.0666V18.7733C19.8336 19.5304 19.2198 20.1442 18.4627 20.1442C17.7056 20.1442 17.0918 19.5304 17.0918 18.7733V18.0666L18.4626 17.3823L19.8336 18.0666Z" fill="#FF2C2C"/>
<path d="M20.2274 12.879C19.0808 12.5 17.8428 12.5 16.6963 12.879L18.4619 14.6446L20.2274 12.879Z" fill="#4A555B"/>
<path d="M16.1975 12.7603C16.1563 12.9336 16.208 13.1158 16.3339 13.2417L18.0995 15.0073C18.1997 15.1074 18.3311 15.1576 18.4624 15.1576C18.5937 15.1576 18.725 15.1075 18.8252 15.0073L20.5908 13.2417C20.7167 13.1158 20.7684 12.9336 20.7272 12.7603C20.6861 12.5871 20.5581 12.4475 20.389 12.3916C19.1466 11.9808 17.7781 11.9808 16.5357 12.3916C16.3666 12.4475 16.2386 12.5871 16.1975 12.7603ZM19.2163 13.1647L18.4624 13.9186L17.7084 13.1647C18.2075 13.0911 18.7172 13.0911 19.2163 13.1647Z" fill="black"/>
<path d="M15.0335 8.71094C13.9946 8.71094 13.1494 9.55613 13.1494 10.595C13.1494 10.8784 13.3792 11.1082 13.6626 11.1082C13.946 11.1082 14.1758 10.8784 14.1758 10.595C14.1758 10.1221 14.5606 9.73732 15.0335 9.73732C15.5065 9.73732 15.8912 10.1221 15.8912 10.595C15.8912 10.8784 16.121 11.1082 16.4044 11.1082C16.6878 11.1082 16.9176 10.8784 16.9176 10.595C16.9176 9.55619 16.0724 8.71094 15.0335 8.71094Z" fill="black"/>
<path d="M22.7487 10.595C22.7487 10.8784 22.9784 11.1082 23.2619 11.1082C23.5453 11.1082 23.775 10.8784 23.775 10.595C23.775 9.55613 22.9298 8.71094 21.8909 8.71094C20.852 8.71094 20.0068 9.55613 20.0068 10.595C20.0068 10.8784 20.2366 11.1082 20.52 11.1082C20.8034 11.1082 21.0332 10.8784 21.0332 10.595C21.0332 10.1221 21.418 9.73732 21.8909 9.73732C22.3639 9.73732 22.7487 10.1221 22.7487 10.595Z" fill="black"/>
<path d="M18.463 20.657C19.5019 20.657 20.3471 19.8118 20.3471 18.7729V18.5084C21.1374 18.2844 21.718 17.5564 21.718 16.6953C21.718 16.4119 21.4882 16.1821 21.2048 16.1821C20.9214 16.1821 20.6916 16.4119 20.6916 16.6953C20.6916 17.1683 20.3069 17.553 19.8339 17.553C19.361 17.553 18.9762 17.1683 18.9762 16.6953C18.9762 16.4119 18.7464 16.1821 18.463 16.1821C18.1796 16.1821 17.9498 16.4119 17.9498 16.6953C17.9498 17.1683 17.5651 17.553 17.0921 17.553C16.6191 17.553 16.2344 17.1683 16.2344 16.6953C16.2344 16.4119 16.0046 16.1821 15.7212 16.1821C15.4378 16.1821 15.208 16.4119 15.208 16.6953C15.208 17.5564 15.7886 18.2844 16.5789 18.5084V18.7729C16.579 19.8118 17.4242 20.657 18.463 20.657ZM18.463 17.9865C18.6935 18.2311 18.9886 18.4143 19.3207 18.5085V18.773C19.3207 19.246 18.936 19.6307 18.463 19.6307C17.9901 19.6307 17.6053 19.246 17.6053 18.773V18.5085C17.9374 18.4143 18.2325 18.2311 18.463 17.9865Z" fill="black"/>
<path d="M33.2457 15.2543C32.0102 14.3993 30.645 13.894 29.3773 13.5998C29.3736 12.2854 29.1105 11.0278 28.6342 9.87068V1.25789C28.6342 0.768578 28.3598 0.333939 27.9179 0.123667C27.476 -0.0866731 26.9656 -0.0256375 26.5843 0.284262L22.1827 3.88988C21.0211 3.48897 19.768 3.27021 18.4621 3.27021C17.1562 3.27021 15.9032 3.48904 14.7414 3.88988L10.3383 0.282962C9.95849 -0.0256375 9.44804 -0.0866046 9.00621 0.123667C8.56439 0.333939 8.28993 0.768578 8.28993 1.25789V3.23846C8.28993 3.52188 8.51971 3.75166 8.80312 3.75166C9.08654 3.75166 9.31632 3.52188 9.31632 3.23846V1.25789C9.31632 1.13164 9.39843 1.07369 9.44735 1.05042C9.49628 1.02709 9.59303 0.999924 9.68944 1.07827L13.6574 4.32869C11.8883 5.15513 10.3877 6.42292 9.31632 7.97981V5.65101C9.31632 5.36759 9.08654 5.13782 8.80312 5.13782C8.51971 5.13782 8.28993 5.36759 8.28993 5.65101V9.87068C7.81362 11.0278 7.5506 12.2854 7.5469 13.5998C6.27918 13.894 4.91395 14.3993 3.67846 15.2542C3.4454 15.4155 3.38724 15.7352 3.54852 15.9682C3.64815 16.1122 3.8082 16.1894 3.97098 16.1894C4.0717 16.1894 4.17345 16.1599 4.26254 16.0982C5.31356 15.3709 6.48795 14.9227 7.59959 14.6497C7.6817 15.442 7.8583 16.2085 8.1186 16.9388C7.33841 17.3783 6.53906 17.9716 5.88519 18.7649C5.70495 18.9836 5.73609 19.307 5.95477 19.4873C6.05036 19.5661 6.166 19.6045 6.28089 19.6045C6.42889 19.6045 6.57574 19.5408 6.67721 19.4177C7.20881 18.7728 7.86474 18.2759 8.51758 17.8971C9.37215 19.6825 10.7454 21.1988 12.4537 22.2716C10.311 23.0512 9.00587 25.2763 9.43339 27.5711L10.0586 30.9269H9.58071C8.10532 30.9269 6.90507 32.1272 6.90507 33.6025V33.9734H5.63598C3.9391 33.9734 2.55861 32.5929 2.55861 30.8961V26.6199C2.55861 25.3074 3.62632 24.2397 4.93879 24.2397C6.25126 24.2397 7.31904 25.3074 7.31904 26.6199C7.31904 27.9323 6.25126 29.0001 4.93879 29.0001C4.68103 29.0001 4.47131 28.7904 4.47131 28.5326C4.47131 28.2748 4.68103 28.0651 4.93879 28.0651C5.22221 28.0651 5.45198 27.8353 5.45198 27.5519C5.45198 27.2685 5.22221 27.0387 4.93879 27.0387C4.11509 27.0387 3.44493 27.7089 3.44493 28.5326C3.44493 29.3564 4.11509 30.0265 4.93879 30.0265C6.81721 30.0265 8.34543 28.4983 8.34543 26.6199C8.34543 24.7415 6.81721 23.2133 4.93879 23.2133C3.06037 23.2133 1.53223 24.7415 1.53223 26.6199V30.8961C1.53223 33.1589 3.37315 34.9998 5.63598 34.9998H29.506C29.7894 34.9998 30.0191 34.77 30.0191 34.4866V33.6025C30.0191 32.1271 28.8188 30.9269 27.3435 30.9269H26.8656L27.4908 27.5711C27.9184 25.2762 26.6131 23.0511 24.4754 22.2727C24.7927 22.0742 25.0996 21.8594 25.3947 21.6289C25.6181 21.4544 25.6578 21.1319 25.4833 20.9086C25.3088 20.6853 24.9864 20.6455 24.763 20.8201C22.9967 22.1996 20.7591 22.9594 18.4622 22.9594C14.445 22.9594 10.9796 20.6872 9.43339 17.4333C10.5185 16.9559 11.409 16.7956 11.4253 16.7927C11.7044 16.7447 11.8919 16.4797 11.8442 16.2006C11.7965 15.9212 11.5312 15.7334 11.2519 15.7811C11.1785 15.7937 10.2206 15.964 9.04494 16.4779C8.82338 15.8275 8.67551 15.1461 8.61071 14.4427C10.5089 14.1287 12.0169 14.2767 12.0499 14.2801C12.3312 14.3099 12.5845 14.1063 12.6147 13.8246C12.6449 13.5427 12.441 13.2898 12.1592 13.2596C12.0483 13.2477 10.5257 13.0947 8.57623 13.4004C8.6827 9.22152 11.7149 5.71437 15.8096 4.63729V6.22599C15.8096 6.50941 16.0393 6.73918 16.3228 6.73918C16.6062 6.73918 16.8359 6.50941 16.8359 6.22599V4.42271C17.2006 4.3655 17.5721 4.32725 17.949 4.30898V7.12291C17.949 7.40633 18.1787 7.63611 18.4621 7.63611C18.7456 7.63611 18.9753 7.40633 18.9753 7.12291V4.30898C19.3241 4.32588 19.6681 4.35996 20.0064 4.41025V6.22599C20.0064 6.50941 20.2362 6.73918 20.5196 6.73918C20.8031 6.73918 21.0328 6.50941 21.0328 6.22599V4.61628C25.1689 5.66791 28.2408 9.19381 28.3481 13.4005C26.3985 13.0948 24.876 13.2478 24.7651 13.2597C24.4832 13.2899 24.2793 13.5429 24.3096 13.8246C24.3398 14.1065 24.5935 14.3105 24.8746 14.2802C24.9004 14.2774 26.4103 14.1256 28.3143 14.4409C28.251 15.139 28.1062 15.8215 27.8829 16.4795C26.7056 15.9643 25.746 15.7937 25.6724 15.7811C25.3929 15.7334 25.1286 15.921 25.0805 16.2C25.0325 16.4791 25.22 16.7444 25.499 16.7928C25.5154 16.7956 26.4082 16.9563 27.4951 17.4352C27.2001 18.0564 26.8307 18.6495 26.3899 19.2064C26.214 19.4286 26.2516 19.7514 26.4737 19.9273C26.6961 20.1033 27.0188 20.0657 27.1947 19.8435C27.6786 19.2322 28.0852 18.5812 28.4112 17.8997C29.0626 18.2781 29.7167 18.7743 30.2471 19.4177C30.3485 19.5408 30.4953 19.6045 30.6434 19.6045C30.7583 19.6045 30.8739 19.5661 30.9695 19.4873C31.1882 19.307 31.2193 18.9836 31.0391 18.7649C30.3864 17.973 29.5886 17.3803 28.8097 16.941C29.0722 16.2021 29.2454 15.4344 29.3257 14.6481C30.4359 14.9214 31.6094 15.37 32.6617 16.0982C32.7508 16.1599 32.8526 16.1894 32.9533 16.1894C33.116 16.1894 33.2761 16.1122 33.3758 15.9682C33.537 15.7352 33.4787 15.4155 33.2457 15.2543ZM19.7408 33.9736H17.1834C17.3543 33.6757 17.452 33.3308 17.452 32.9635V27.7538C17.452 27.1968 17.9052 26.7437 18.4621 26.7437C19.0191 26.7437 19.4722 27.1968 19.4722 27.7538V32.9635C19.4722 33.3308 19.57 33.6757 19.7408 33.9736ZM26.4818 27.3833L25.7434 31.3462C25.7155 31.4962 25.7558 31.6509 25.8532 31.7682C25.9506 31.8856 26.0954 31.9534 26.2479 31.9534H27.3434C28.2529 31.9534 28.9927 32.6933 28.9927 33.6027V33.9736H23.2765C23.4474 33.6758 23.5451 33.3308 23.5451 32.9635V23.0721L23.7016 23.1112C25.6221 23.5665 26.8432 25.443 26.4818 27.3833ZM22.5188 23.2431V32.9635C22.5188 33.5205 22.0656 33.9736 21.5087 33.9736C20.9517 33.9736 20.4986 33.5205 20.4986 32.9635V27.7538C20.4986 26.6309 19.585 25.7173 18.4621 25.7173C17.3391 25.7173 16.4256 26.6309 16.4256 27.7538V32.9635C16.4256 33.5205 15.9725 33.9736 15.4155 33.9736C14.8585 33.9736 14.4054 33.5205 14.4054 32.9635V27.2505C14.4054 26.9671 14.1756 26.7373 13.8922 26.7373C13.6088 26.7373 13.379 26.9671 13.379 27.2505V32.9635C13.379 33.3308 13.4768 33.6757 13.6477 33.9736H7.93145V33.6026C7.93145 32.6932 8.67134 31.9534 9.58071 31.9534H10.6762C10.8287 31.9534 10.9734 31.8855 11.071 31.7681C11.1685 31.6508 11.2087 31.4962 11.1807 31.3462L10.4424 27.3832C10.0809 25.443 11.3021 23.5665 13.2288 23.1097L13.379 23.0721V24.8604C13.379 25.1438 13.6088 25.3736 13.8922 25.3736C14.1756 25.3736 14.4054 25.1438 14.4054 24.8604V23.2442C15.66 23.7225 17.0292 23.9858 18.4621 23.9858C19.8591 23.9859 21.2369 23.7296 22.5188 23.2431ZM23.2668 4.32862L27.2331 1.0795C27.3312 0.999856 27.4279 1.02709 27.4769 1.05035C27.5258 1.07362 27.6079 1.13157 27.6079 1.25782V7.97967C26.5364 6.42292 25.0359 5.15506 23.2668 4.32862Z" fill="black"/>
</g>
<defs>
<clipPath id="clip0">
<rect width="35" height="35" fill="white"/>
</clipPath>
</defs>
</svg>
