<svg width="26" height="28" viewBox="0 0 26 28" fill="none" xmlns="http://www.w3.org/2000/svg">
<path d="M19.3954 16.1875H6.60292C6.35989 16.1873 6.11957 16.1364 5.89727 16.0382C5.67496 15.94 5.47555 15.7966 5.31175 15.617C5.14794 15.4375 5.02332 15.2258 4.94583 14.9955C4.86834 14.7651 4.83968 14.5212 4.86167 14.2791L5.56167 6.5625H20.4367L21.1367 14.2791C21.1587 14.5212 21.13 14.7651 21.0525 14.9955C20.975 15.2258 20.8504 15.4375 20.6866 15.617C20.5228 15.7966 20.3234 15.94 20.1011 16.0382C19.8788 16.1364 19.6385 16.1873 19.3954 16.1875Z" fill="#E6E7E8"/>
<path d="M19.125 4.8125V8.435C18.9925 8.35636 18.8416 8.3141 18.6875 8.3125H17.8125C17.8125 7.84837 17.6281 7.40325 17.2999 7.07506C16.9717 6.74688 16.5266 6.5625 16.0625 6.5625H9.9375C9.47337 6.5625 9.02825 6.74688 8.70006 7.07506C8.37187 7.40325 8.1875 7.84837 8.1875 8.3125H7.3125C7.15842 8.3141 7.0075 8.35636 6.875 8.435V4.375C6.875 3.67881 7.15156 3.01113 7.64384 2.51885C8.13613 2.02656 8.80381 1.75 9.5 1.75H9.9375C10.2856 1.75 10.6194 1.88828 10.8656 2.13442C11.1117 2.38057 11.25 2.7144 11.25 3.0625C11.2497 2.83261 11.2948 2.60491 11.3826 2.39246C11.4705 2.18002 11.5994 1.98698 11.7619 1.82442C11.9245 1.66186 12.1175 1.53297 12.33 1.44513C12.5424 1.35728 12.7701 1.31221 13 1.3125H15.625C16.5533 1.3125 17.4435 1.68125 18.0999 2.33763C18.7563 2.994 19.125 3.88424 19.125 4.8125Z" fill="#414042"/>
<path d="M9.9375 1.75H9.5C8.80381 1.75 8.13613 2.02656 7.64384 2.51884C7.15156 3.01113 6.875 3.67881 6.875 4.375V8.435C7.0075 8.35636 7.15842 8.3141 7.3125 8.3125H8.1875C8.1875 7.84837 8.37187 7.40325 8.70006 7.07506C9.02825 6.74687 9.47337 6.5625 9.9375 6.5625H11.25V3.0625C11.25 2.7144 11.1117 2.38056 10.8656 2.13442C10.6194 1.88828 10.2856 1.75 9.9375 1.75Z" fill="#58595B"/>
<path d="M24.5972 24.2046C24.4266 22.5884 23.6989 21.082 22.5391 19.9437C21.3792 18.8054 19.8594 18.1061 18.2404 17.9658C17.8044 18.9952 17.0749 19.8734 16.143 20.4908C15.211 21.1081 14.1179 21.4374 13 21.4374C11.8821 21.4374 10.789 21.1081 9.85702 20.4908C8.92508 19.8734 8.19559 18.9952 7.75962 17.9658C6.13664 18.1053 4.6131 18.8064 3.45147 19.9484C2.28983 21.0903 1.56285 22.6017 1.39575 24.2221L1.1875 26.6874H24.8125L24.5972 24.2046Z" fill="#F00E00" fill-opacity="0.47"/>
<path d="M24.5971 24.2046C24.4265 22.5884 23.6988 21.082 22.539 19.9437C21.3791 18.8054 19.8593 18.1061 18.2403 17.9658C18.2219 18.0096 18.2005 18.0489 18.1816 18.0909C19.634 18.3911 20.9533 19.1451 21.9492 20.2439C22.9451 21.3428 23.5659 22.7298 23.7221 24.2046L23.9374 26.6874H24.8124L24.5971 24.2046Z" fill="#005ECE"/>
<path d="M21.3125 5.6875C21.3118 5.91935 21.2194 6.14151 21.0555 6.30545C20.8915 6.4694 20.6694 6.56181 20.4375 6.5625H5.5625C5.33044 6.5625 5.10788 6.47031 4.94378 6.30622C4.77969 6.14212 4.6875 5.91956 4.6875 5.6875C4.6875 5.45544 4.77969 5.23288 4.94378 5.06878C5.10788 4.90469 5.33044 4.8125 5.5625 4.8125H20.4375C20.6694 4.81319 20.8915 4.9056 21.0555 5.06955C21.2194 5.23349 21.3118 5.45565 21.3125 5.6875Z" fill="#FF5023"/>
<path d="M20.8632 4.92822C20.8352 5.13764 20.7324 5.32985 20.5737 5.46937C20.4151 5.60889 20.2113 5.68629 20 5.68728H5.125C4.97543 5.68637 4.82869 5.6464 4.69931 5.57135C4.69272 5.60968 4.68877 5.64841 4.6875 5.68728C4.68819 5.91914 4.7806 6.14129 4.94455 6.30524C5.10849 6.46918 5.33065 6.56159 5.5625 6.56228H20.4375C20.631 6.56313 20.8193 6.49952 20.9727 6.38151C21.1261 6.26349 21.2359 6.09778 21.2846 5.91049C21.3334 5.72321 21.3185 5.52501 21.2422 5.34716C21.1659 5.16931 21.0325 5.02191 20.8632 4.92822Z" fill="#DF461F"/>
<path d="M17.6376 17.9376H16.0626C15.8308 17.9369 15.6086 17.8445 15.4447 17.6806C15.2807 17.5166 15.1883 17.2944 15.1876 17.0626V15.6626C14.51 16.0074 13.7605 16.1872 13.0001 16.1872C12.2398 16.1872 11.4903 16.0074 10.8126 15.6626V17.0626C10.8119 17.2944 10.7195 17.5166 10.5556 17.6806C10.3917 17.8445 10.1695 17.9369 9.93764 17.9376H8.35914C8.15702 17.9376 7.95795 17.949 7.75977 17.966C8.19574 18.9954 8.92522 19.8736 9.85716 20.491C10.7891 21.1084 11.8822 21.4376 13.0001 21.4376C14.118 21.4376 15.2112 21.1084 16.1431 20.491C17.0751 19.8736 17.8045 18.9954 18.2405 17.966C18.0406 17.949 17.8393 17.9376 17.6376 17.9376Z" fill="#FFB8A5"/>
<path d="M15.1875 16.1001V15.6626C14.5099 16.0074 13.7603 16.1872 13 16.1872C12.2397 16.1872 11.4901 16.0074 10.8125 15.6626V16.1001C11.4901 16.4449 12.2397 16.6247 13 16.6247C13.7603 16.6247 14.5099 16.4449 15.1875 16.1001Z" fill="#FFAC96"/>
<path d="M17.812 11.2175C17.812 11.27 17.812 11.3225 17.8076 11.375H18.687C18.9188 11.3743 19.141 11.2819 19.3049 11.118C19.4689 10.954 19.5613 10.7319 19.562 10.5V9.1875C19.5613 8.95565 19.4689 8.73349 19.3049 8.56955C19.141 8.4056 18.9188 8.31319 18.687 8.3125H17.812V11.2175Z" fill="#FFAC96"/>
<path d="M8.1875 8.3125H7.3125C7.08065 8.31319 6.85849 8.4056 6.69455 8.56955C6.5306 8.73349 6.43819 8.95565 6.4375 9.1875V10.5C6.43819 10.7319 6.5306 10.954 6.69455 11.118C6.85849 11.2819 7.08065 11.3743 7.3125 11.375H8.1875V8.3125Z" fill="#FFAC96"/>
<path d="M8.1875 6.5625H17.8125V11.375C17.8125 12.6514 17.3055 13.8754 16.403 14.778C15.5004 15.6805 14.2764 16.1875 13 16.1875C11.7236 16.1875 10.4996 15.6805 9.59705 14.778C8.69453 13.8754 8.1875 12.6514 8.1875 11.375V6.5625Z" fill="#FFBCAB"/>
<path d="M13 10.5L9.9375 11.375V15.0872C10.7996 15.7984 11.8824 16.1874 13 16.1874C14.1176 16.1874 15.2004 15.7984 16.0625 15.0872V11.375L13 10.5Z" fill="#57A4FF"/>
<path d="M15.1875 11.125V12.6125C15.196 13.4279 14.8834 14.214 14.3173 14.8009C13.7512 15.3879 12.977 15.7287 12.1618 15.7498H12.125C11.549 15.7499 10.9777 15.6462 10.4385 15.4436C11.2939 15.9845 12.2983 16.2413 13.3083 16.1772C14.3184 16.1132 15.2823 15.7316 16.0625 15.087V11.3748L15.1875 11.125Z" fill="#2488FF"/>
<path d="M25.0309 24.1588C24.8427 22.33 23.9821 20.6362 22.616 19.4059C21.2499 18.1756 19.4756 17.4964 17.6371 17.5H16.0621C15.9461 17.5 15.8348 17.4539 15.7528 17.3719C15.6707 17.2898 15.6246 17.1785 15.6246 17.0625V16.625H19.3959C19.6996 16.6246 20 16.5611 20.2779 16.4384C20.5557 16.3156 20.805 16.1365 21.0099 15.9122C21.2148 15.688 21.3709 15.4236 21.4681 15.1358C21.5653 14.848 21.6016 14.5432 21.5746 14.2406L20.9096 6.90812C21.1953 6.79813 21.4335 6.59159 21.5828 6.32433C21.7321 6.05708 21.7831 5.74598 21.7269 5.44504C21.6708 5.14411 21.5111 4.87232 21.2755 4.67686C21.0399 4.4814 20.7433 4.3746 20.4371 4.375H19.5359C19.4268 3.41338 18.9681 2.52542 18.2469 1.88006C17.5257 1.2347 16.5924 0.876994 15.6246 0.875H12.9996C12.4186 0.875748 11.8616 1.10705 11.4509 1.51812C11.3526 1.61521 11.2646 1.72224 11.1884 1.8375C11.0253 1.6711 10.8306 1.53894 10.6157 1.44879C10.4009 1.35864 10.1702 1.3123 9.93714 1.3125H9.49964C8.6877 1.31343 7.90928 1.63638 7.33515 2.21051C6.76102 2.78464 6.43807 3.56306 6.43714 4.375H5.56214C5.25601 4.3746 4.95941 4.4814 4.7238 4.67686C4.4882 4.87232 4.32847 5.14411 4.27234 5.44504C4.2162 5.74598 4.26721 6.05708 4.4165 6.32433C4.5658 6.59159 4.80395 6.79813 5.08964 6.90812L4.42464 14.2406C4.3977 14.5432 4.43399 14.848 4.5312 15.1358C4.62842 15.4236 4.78443 15.688 4.98934 15.9122C5.19424 16.1365 5.44354 16.3156 5.72141 16.4384C5.99928 16.5611 6.29963 16.6246 6.60339 16.625H10.3746V17.0625C10.3746 17.1785 10.3285 17.2898 10.2465 17.3719C10.1645 17.4539 10.0532 17.5 9.93714 17.5H8.35776C6.51431 17.4954 4.73522 18.1776 3.36744 19.4135C1.99966 20.6494 1.14126 22.3505 0.95964 24.185L0.74964 26.6525C0.744459 26.7129 0.75195 26.7737 0.771633 26.831C0.791317 26.8884 0.822758 26.941 0.863944 26.9855C0.90513 27.0299 0.955153 27.0653 1.01081 27.0894C1.06646 27.1134 1.12652 27.1255 1.18714 27.125H24.8121C24.8731 27.1252 24.9334 27.1128 24.9892 27.0884C25.045 27.064 25.0951 27.0282 25.1363 26.9833C25.1775 26.9384 25.2088 26.8854 25.2284 26.8277C25.2479 26.77 25.2551 26.7088 25.2496 26.6481L25.0309 24.1588ZM15.6246 14.8313C14.9028 15.4081 14.011 15.731 13.0871 15.75H13.0084C12.0576 15.7551 11.1317 15.446 10.3746 14.8706V11.7031L12.9996 10.955L15.6246 11.7031V14.8313ZM20.3628 15.3212C20.2409 15.4568 20.0918 15.5651 19.9252 15.639C19.7585 15.7129 19.5782 15.7507 19.3959 15.75H15.8478C16.0184 15.6319 16.1846 15.5094 16.3465 15.3737L16.3684 15.3519C16.3695 15.3519 16.3707 15.3514 16.3715 15.3506C16.3723 15.3498 16.3728 15.3487 16.3728 15.3475C17.408 14.4421 18.064 13.18 18.2103 11.8125H18.6871C19.0349 11.8115 19.3682 11.6728 19.6141 11.4269C19.86 11.181 19.9986 10.8478 19.9996 10.5V9.1875C19.999 9.00396 19.9598 8.8226 19.8844 8.65526C19.809 8.48791 19.6992 8.33832 19.5621 8.21625V7H20.039L20.704 14.3194C20.7216 14.501 20.7003 14.6843 20.6414 14.8571C20.5826 15.0299 20.4876 15.1881 20.3628 15.3212ZM16.4996 13.9125V11.5544L17.3746 10.6794V11.2175C17.3746 11.2569 17.3746 11.3006 17.3703 11.3619C17.3406 12.2798 17.0374 13.168 16.4996 13.9125ZM18.6871 7.875H18.2059C18.1394 7.55591 18.0002 7.25646 17.799 7H18.6871V7.875ZM19.1246 9.1875V10.5C19.1246 10.616 19.0785 10.7273 18.9965 10.8094C18.9144 10.8914 18.8032 10.9375 18.6871 10.9375H18.2496V8.75H18.6871C18.8032 8.75 18.9144 8.79609 18.9965 8.87814C19.0785 8.96019 19.1246 9.07147 19.1246 9.1875ZM9.49964 2.1875H9.93714C10.169 2.18819 10.3911 2.2806 10.5551 2.44455C10.719 2.60849 10.8114 2.83065 10.8121 3.0625C10.8121 3.17853 10.8582 3.28981 10.9403 3.37186C11.0223 3.45391 11.1336 3.5 11.2496 3.5C11.3657 3.5 11.477 3.45391 11.559 3.37186C11.641 3.28981 11.6871 3.17853 11.6871 3.0625C11.6864 2.88995 11.7199 2.71896 11.7856 2.55941C11.8513 2.39985 11.948 2.25489 12.07 2.13287C12.192 2.01086 12.337 1.91421 12.4965 1.84849C12.6561 1.78278 12.8271 1.74931 12.9996 1.75H15.6246C16.3604 1.75086 17.0713 2.01662 17.6273 2.49864C18.1832 2.98067 18.547 3.64674 18.6521 4.375H7.31214C7.31214 3.79484 7.54261 3.23844 7.95284 2.8282C8.36308 2.41797 8.91948 2.1875 9.49964 2.1875ZM5.12464 5.6875C5.12464 5.57147 5.17073 5.46019 5.25278 5.37814C5.33483 5.29609 5.44611 5.25 5.56214 5.25H20.4371C20.5532 5.25 20.6644 5.29609 20.7465 5.37814C20.8285 5.46019 20.8746 5.57147 20.8746 5.6875C20.8746 5.80353 20.8285 5.91481 20.7465 5.99686C20.6644 6.07891 20.5532 6.125 20.4371 6.125H5.56214C5.44611 6.125 5.33483 6.07891 5.25278 5.99686C5.17073 5.91481 5.12464 5.80353 5.12464 5.6875ZM8.62464 10.6794L9.49964 11.5544V13.9913C8.93287 13.2367 8.62587 12.3187 8.62464 11.375V10.6794ZM7.31214 7.875V7H8.20026C7.9991 7.25646 7.85986 7.55591 7.79339 7.875H7.31214ZM7.74964 8.75V10.9375H7.31214C7.19611 10.9375 7.08483 10.8914 7.00278 10.8094C6.92073 10.7273 6.87464 10.616 6.87464 10.5V9.1875C6.87464 9.07147 6.92073 8.96019 7.00278 8.87814C7.08483 8.79609 7.19611 8.75 7.31214 8.75H7.74964ZM6.60339 15.75C6.42131 15.7491 6.24139 15.7105 6.07495 15.6366C5.90851 15.5628 5.75916 15.4553 5.63629 15.3209C5.51342 15.1865 5.41969 15.0282 5.361 14.8558C5.30231 14.6835 5.27993 14.5008 5.29526 14.3194L5.96026 7H6.43714V8.21625C6.30008 8.33832 6.19028 8.48791 6.1149 8.65526C6.03951 8.8226 6.00024 9.00396 5.99964 9.1875V10.5C6.00068 10.8478 6.13929 11.181 6.38521 11.4269C6.63113 11.6728 6.96436 11.8115 7.31214 11.8125H7.77589C7.83195 12.5025 8.0244 13.1745 8.34207 13.7895C8.65974 14.4046 9.09632 14.9505 9.62651 15.3956H9.63089L9.65714 15.4219L9.66151 15.4175C9.66267 15.4175 9.66379 15.418 9.66461 15.4188C9.66543 15.4196 9.66589 15.4207 9.66589 15.4219L9.66151 15.4262C9.80071 15.5429 9.94681 15.651 10.099 15.75H6.60339ZM10.064 10.885L8.62464 9.44563V8.3125C8.62568 7.96472 8.76429 7.63149 9.01021 7.38557C9.25613 7.13965 9.58936 7.00104 9.93714 7H16.0621C16.4099 7.00104 16.7432 7.13965 16.9891 7.38557C17.235 7.63149 17.3736 7.96472 17.3746 8.3125V9.44563L15.9353 10.885L13.1178 10.08C13.0405 10.0581 12.9587 10.0581 12.8815 10.08L10.064 10.885ZM9.93714 18.375C10.2849 18.374 10.6182 18.2353 10.8641 17.9894C11.11 17.7435 11.2486 17.4103 11.2496 17.0625V16.625H14.7496V17.0625C14.7507 17.4103 14.8893 17.7435 15.1352 17.9894C15.3811 18.2353 15.7144 18.374 16.0621 18.375H17.5453C17.0843 19.1726 16.4217 19.8349 15.6238 20.2954C14.8259 20.7558 13.9209 20.9983 12.9996 20.9983C12.0784 20.9983 11.1734 20.7558 10.3755 20.2954C9.57762 19.8349 8.91493 19.1726 8.45401 18.375H9.93714ZM19.9996 26.25V23.1875C19.9996 23.0715 19.9535 22.9602 19.8715 22.8781C19.7894 22.7961 19.6782 22.75 19.5621 22.75C19.4461 22.75 19.3348 22.7961 19.2528 22.8781C19.1707 22.9602 19.1246 23.0715 19.1246 23.1875V26.25H6.87464V23.1875C6.87464 23.0715 6.82855 22.9602 6.7465 22.8781C6.66445 22.7961 6.55317 22.75 6.43714 22.75C6.32111 22.75 6.20983 22.7961 6.12778 22.8781C6.04573 22.9602 5.99964 23.0715 5.99964 23.1875V26.25H1.66401L1.83026 24.2681C1.97832 22.7995 2.61865 21.424 3.64721 20.3653C4.67577 19.3065 6.03212 18.6267 7.49589 18.4362C7.99932 19.4671 8.78215 20.3359 9.7552 20.9436C10.7283 21.5512 11.8524 21.8734 12.9996 21.8734C14.1469 21.8734 15.271 21.5512 16.2441 20.9436C17.2171 20.3359 18 19.4671 18.5034 18.4362C19.9617 18.627 21.3132 19.3037 22.3396 20.3571C23.366 21.4105 24.0074 22.7791 24.1603 24.2419L24.3353 26.25H19.9996Z" fill="#231F20"/>
<path d="M14.75 10.0625C14.866 10.0625 14.9773 10.0164 15.0594 9.93436C15.1414 9.85231 15.1875 9.74103 15.1875 9.625V9.1875C15.1875 9.07147 15.1414 8.96019 15.0594 8.87814C14.9773 8.79609 14.866 8.75 14.75 8.75C14.634 8.75 14.5227 8.79609 14.4406 8.87814C14.3586 8.96019 14.3125 9.07147 14.3125 9.1875V9.625C14.3125 9.74103 14.3586 9.85231 14.4406 9.93436C14.5227 10.0164 14.634 10.0625 14.75 10.0625Z" fill="#231F20"/>
<path d="M11.25 10.0625C11.366 10.0625 11.4773 10.0164 11.5594 9.93436C11.6414 9.85231 11.6875 9.74103 11.6875 9.625V9.1875C11.6875 9.07147 11.6414 8.96019 11.5594 8.87814C11.4773 8.79609 11.366 8.75 11.25 8.75C11.134 8.75 11.0227 8.79609 10.9406 8.87814C10.8586 8.96019 10.8125 9.07147 10.8125 9.1875V9.625C10.8125 9.74103 10.8586 9.85231 10.9406 9.93436C11.0227 10.0164 11.134 10.0625 11.25 10.0625Z" fill="#231F20"/>
<path d="M11.6875 13.125H14.3125C14.4285 13.125 14.5398 13.0789 14.6219 12.9969C14.7039 12.9148 14.75 12.8035 14.75 12.6875C14.75 12.5715 14.7039 12.4602 14.6219 12.3781C14.5398 12.2961 14.4285 12.25 14.3125 12.25H11.6875C11.5715 12.25 11.4602 12.2961 11.3781 12.3781C11.2961 12.4602 11.25 12.5715 11.25 12.6875C11.25 12.8035 11.2961 12.9148 11.3781 12.9969C11.4602 13.0789 11.5715 13.125 11.6875 13.125Z" fill="#231F20"/>
<path d="M14.75 14C14.75 13.884 14.7039 13.7727 14.6219 13.6906C14.5398 13.6086 14.4285 13.5625 14.3125 13.5625H11.6875C11.5715 13.5625 11.4602 13.6086 11.3781 13.6906C11.2961 13.7727 11.25 13.884 11.25 14C11.25 14.116 11.2961 14.2273 11.3781 14.3094C11.4602 14.3914 11.5715 14.4375 11.6875 14.4375H14.3125C14.4285 14.4375 14.5398 14.3914 14.6219 14.3094C14.7039 14.2273 14.75 14.116 14.75 14Z" fill="#231F20"/>
</svg>
