<svg width="35" height="35" viewBox="0 0 35 35" fill="none" xmlns="http://www.w3.org/2000/svg">
<path d="M25.0827 14.875H9.91602V19.5417H25.0827V14.875Z" fill="#EBEBEB"/>
<path d="M25.0827 18.375H9.91602V19.5417H25.0827V18.375Z" fill="#DBDBDB"/>
<path d="M5.25037 24.2082H4.08368C3.43912 24.2082 2.91699 23.6861 2.91699 23.0415V11.9582C2.91699 11.3136 3.43905 10.7915 4.08368 10.7915H5.25037C5.89493 10.7915 6.41706 11.3136 6.41706 11.9582V23.0415C6.41706 23.6861 5.89493 24.2082 5.25037 24.2082Z" fill="#277BAA"/>
<path d="M8.74939 27.7082H7.58271C6.93814 27.7082 6.41602 27.1861 6.41602 26.5415V8.45819C6.41602 7.81363 6.93808 7.2915 7.58271 7.2915H8.74939C9.39396 7.2915 9.91608 7.81356 9.91608 8.45819V26.5415C9.91608 27.1861 9.39396 27.7082 8.74939 27.7082Z" fill="#428DC5"/>
<path d="M8.74939 11.375H7.58271C6.93814 11.375 6.41602 11.7711 6.41602 12.2599V23.3234C6.41602 23.8122 6.93808 24.2083 7.58271 24.2083H8.74939C9.39396 24.2083 9.91608 23.8122 9.91608 23.3234V12.2599C9.91608 11.7711 9.39396 11.375 8.74939 11.375Z" fill="#4799CF"/>
<path d="M29.7497 24.2082H30.9164C31.5609 24.2082 32.0831 23.6861 32.0831 23.0415V11.9582C32.0831 11.3136 31.561 10.7915 30.9164 10.7915H29.7497C29.1051 10.7915 28.583 11.3136 28.583 11.9582V23.0415C28.583 23.6861 29.1051 24.2082 29.7497 24.2082Z" fill="#277BAA"/>
<path d="M26.2507 27.7082H27.4174C28.0619 27.7082 28.5841 27.1861 28.5841 26.5415V8.45819C28.5841 7.81363 28.062 7.2915 27.4174 7.2915H26.2507C25.6061 7.2915 25.084 7.81356 25.084 8.45819V26.5415C25.084 27.1861 25.6061 27.7082 26.2507 27.7082Z" fill="#428DC5"/>
<path d="M22.7497 16.625H21.583V17.7917H22.7497V16.625Z" fill="#B9B9B9"/>
<path d="M18.0837 16.625H16.917V17.7917H18.0837V16.625Z" fill="#B9B9B9"/>
<path d="M20.4167 16.625H19.25V17.7917H20.4167V16.625Z" fill="#B9B9B9"/>
<path d="M15.7497 16.625H14.583V17.7917H15.7497V16.625Z" fill="#B9B9B9"/>
<path d="M13.4167 16.625H12.25V17.7917H13.4167V16.625Z" fill="#B9B9B9"/>
<path d="M33.2497 19.5417H32.083V14.875H33.2497C33.8943 14.875 34.4164 15.3971 34.4164 16.0417V18.375C34.4164 19.0196 33.8943 19.5417 33.2497 19.5417Z" fill="#EBEBEB"/>
<path d="M2.91639 19.5417H1.7497C1.10514 19.5417 0.583008 19.0196 0.583008 18.375V16.0417C0.583008 15.3971 1.10507 14.875 1.7497 14.875H2.91639V19.5417Z" fill="#EBEBEB"/>
<path d="M0.583008 18.375C0.583008 19.0196 1.10507 19.5417 1.7497 19.5417H2.91639V18.375H0.583008Z" fill="#DBDBDB"/>
<path d="M32.083 19.5417H33.2497C33.8943 19.5417 34.4164 19.0196 34.4164 18.375H32.0831V19.5417H32.083Z" fill="#DBDBDB"/>
<path d="M5.25037 13.125H4.08368C3.43912 13.125 2.91699 13.6471 2.91699 14.2917V20.7084C2.91699 21.3529 3.43905 21.8751 4.08368 21.8751H5.25037C5.89493 21.8751 6.41706 21.353 6.41706 20.7084V14.2917C6.41706 13.6471 5.89493 13.125 5.25037 13.125Z" fill="#428DC5"/>
<path d="M30.9174 13.125H29.7507C29.1061 13.125 28.584 13.6471 28.584 14.2917V20.7084C28.584 21.3529 29.106 21.8751 29.7507 21.8751H30.9174C31.5619 21.8751 32.0841 21.353 32.0841 20.7084V14.2917C32.084 13.6471 31.5619 13.125 30.9174 13.125Z" fill="#428DC5"/>
<path d="M27.4174 11.375H26.2507C25.6061 11.375 25.084 11.7711 25.084 12.2599V23.3234C25.084 23.8122 25.606 24.2083 26.2507 24.2083H27.4174C28.0619 24.2083 28.5841 23.8122 28.5841 23.3234V12.2599C28.584 11.7711 28.0619 11.375 27.4174 11.375Z" fill="#4799CF"/>
<path d="M22.7497 16.625H21.583V17.7917H22.7497V16.625Z" fill="black"/>
<path d="M18.0837 16.625H16.917V17.7917H18.0837V16.625Z" fill="black"/>
<path d="M20.4167 16.625H19.25V17.7917H20.4167V16.625Z" fill="black"/>
<path d="M15.7497 16.625H14.583V17.7917H15.7497V16.625Z" fill="black"/>
<path d="M13.4167 16.625H12.25V17.7917H13.4167V16.625Z" fill="black"/>
<path d="M33.25 14.2918H32.6667V11.9585C32.6667 10.9937 31.8815 10.2085 30.9167 10.2085H29.75C29.5446 10.2085 29.3498 10.2505 29.1667 10.3158V8.4585C29.1667 7.49367 28.3815 6.7085 27.4167 6.7085H26.25C25.2852 6.7085 24.5 7.49367 24.5 8.4585V14.2918H10.5V8.4585C10.5 7.49367 9.71482 6.7085 8.75 6.7085H7.58331C6.61849 6.7085 5.83331 7.49367 5.83331 8.4585V10.3158C5.65018 10.2505 5.45528 10.2085 5.25 10.2085H4.08331C3.11849 10.2085 2.33331 10.9937 2.33331 11.9585V14.2918H1.75C0.785176 14.2918 0 15.077 0 16.0418V18.3751C0 19.3399 0.785176 20.1251 1.75 20.1251H2.33331V23.0418C2.33331 24.0066 3.11849 24.7918 4.08331 24.7918H5.25C5.45535 24.7918 5.65018 24.7498 5.83331 24.6845V26.5418C5.83331 27.5066 6.61849 28.2918 7.58331 28.2918H8.75C9.71482 28.2918 10.5 27.5066 10.5 26.5418V20.1251H24.5V26.5418C24.5 27.5066 25.2852 28.2918 26.25 28.2918H27.4167C28.3815 28.2918 29.1667 27.5066 29.1667 26.5418V24.6845C29.3498 24.7498 29.5447 24.7918 29.75 24.7918H30.9167C31.8815 24.7918 32.6667 24.0066 32.6667 23.0418V20.1251H33.25C34.2148 20.1251 35 19.3399 35 18.3751V16.0418C35 15.077 34.2148 14.2918 33.25 14.2918ZM2.33331 18.9584H1.75C1.42803 18.9584 1.16669 18.6971 1.16669 18.3751V16.0418C1.16669 15.7198 1.42803 15.4585 1.75 15.4585H2.33331V18.9584ZM5.83331 23.0418C5.83331 23.3638 5.57197 23.6251 5.25 23.6251H4.08331C3.76134 23.6251 3.5 23.3638 3.5 23.0418V19.5418V14.8751V11.9584C3.5 11.6365 3.76134 11.3751 4.08331 11.3751H5.25C5.57197 11.3751 5.83331 11.6365 5.83331 11.9584V23.0418ZM9.33331 26.5418C9.33331 26.8638 9.07197 27.1251 8.75 27.1251H7.58331C7.26134 27.1251 7 26.8638 7 26.5418V23.0418V11.9584V8.45843C7 8.13646 7.26134 7.87512 7.58331 7.87512H8.75C9.07197 7.87512 9.33331 8.13646 9.33331 8.45843V26.5418ZM24.5 18.9584H10.5V15.4584H24.5V18.9584ZM28 11.9584V23.0417V26.5417C28 26.8637 27.7387 27.125 27.4167 27.125H26.25C25.928 27.125 25.6667 26.8637 25.6667 26.5417V8.45843C25.6667 8.13646 25.928 7.87512 26.25 7.87512H27.4167C27.7387 7.87512 28 8.13646 28 8.45843V11.9584ZM31.5 14.8751V19.5418V23.0418C31.5 23.3638 31.2387 23.6251 30.9167 23.6251H29.75C29.428 23.6251 29.1667 23.3638 29.1667 23.0418V11.9584C29.1667 11.6365 29.428 11.3751 29.75 11.3751H30.9167C31.2387 11.3751 31.5 11.6365 31.5 11.9584V14.8751ZM33.8333 18.3751C33.8333 18.6971 33.572 18.9584 33.25 18.9584H32.6667V15.4584H33.25C33.572 15.4584 33.8333 15.7198 33.8333 16.0417V18.3751Z" fill="black"/>
</svg>
