<svg width="38" height="38" viewBox="0 0 38 38" fill="none" xmlns="http://www.w3.org/2000/svg">
<path d="M20.7812 13.0625V15.4375C20.7812 17.0122 20.1556 18.5224 19.0421 19.6359C17.9286 20.7493 16.4185 21.3749 14.8438 21.375H8.90625V17.9609C8.90688 16.347 9.54828 14.7994 10.6895 13.6582C11.8307 12.517 13.3783 11.8756 14.9922 11.875H19.5938C19.7497 11.875 19.9041 11.9056 20.0482 11.9653C20.1923 12.025 20.3233 12.1124 20.4335 12.2227C20.5438 12.333 20.6313 12.4639 20.6909 12.608C20.7506 12.7521 20.7813 12.9065 20.7812 13.0625Z" fill="#349966"/>
<path d="M13.6562 20.3359V28.5H11.2812V23.75H7.71875C6.14405 23.7499 4.63386 23.1243 3.52038 22.0109C2.4069 20.8974 1.78132 19.3872 1.78125 17.8125V15.4375C1.78121 15.2815 1.81189 15.1271 1.87155 14.983C1.93122 14.8389 2.01868 14.708 2.12896 14.5977C2.23924 14.4874 2.37017 14.4 2.51426 14.3403C2.65836 14.2806 2.81279 14.25 2.96875 14.25H7.57031C8.36954 14.25 9.16094 14.4074 9.89934 14.7132C10.6377 15.019 11.3087 15.4673 11.8738 16.0325C12.4389 16.5976 12.8872 17.2685 13.1931 18.0069C13.4989 18.7453 13.6563 19.5367 13.6562 20.3359Z" fill="#349966"/>
<path d="M30.2809 23.1562L27.2884 29.5687C26.9547 30.2837 26.4818 30.925 25.8974 31.4552C25.313 31.9853 24.6288 32.3936 23.8847 32.6562H19.3589C19.3522 32.6303 19.3455 32.6036 19.3403 32.5768L18.8416 30.0861C18.5609 28.6804 18.7979 27.2206 19.5088 25.9758L23.1559 19.5938L30.2809 23.1562Z" fill="#C4D4E0"/>
<path d="M30.2816 11.875L24.1948 23.4954C24.0728 23.7283 24.0413 23.9981 24.1064 24.2528C24.1715 24.5075 24.3285 24.7291 24.5472 24.875C24.6714 24.9578 24.8116 25.0135 24.9587 25.0386C25.1058 25.0637 25.2566 25.0576 25.4012 25.0206C25.5458 24.9837 25.681 24.9167 25.798 24.8242C25.9151 24.7316 26.0114 24.6154 26.0806 24.4832L32.0629 13.0625L30.2816 11.875Z" fill="#A6B2BC"/>
<path d="M28.3642 18.1783H28.3642C28.8859 18.4019 29.4727 18.4204 30.0075 18.2302C30.5423 18.0401 30.9856 17.6551 31.2489 17.1524L35.682 8.68921C35.8262 8.41395 35.9119 8.11184 35.9338 7.80186C35.9556 7.49189 35.9132 7.18074 35.8091 6.88796C35.7049 6.59518 35.5414 6.32709 35.3287 6.10053C35.116 5.87397 34.8588 5.69383 34.5732 5.57142H34.5732C34.0515 5.34784 33.4647 5.32929 32.9299 5.51948C32.3952 5.70966 31.9518 6.09458 31.6885 6.59735L27.2554 15.0605C27.1112 15.3358 27.0255 15.6379 27.0036 15.9478C26.9818 16.2578 27.0242 16.569 27.1284 16.8618C27.2325 17.1545 27.396 17.4226 27.6087 17.6492C27.8214 17.8757 28.0786 18.0559 28.3642 18.1783Z" fill="#966342"/>
<path d="M16.0312 29.0938V31.4688H4.15625C4.15625 31.1154 4.26135 30.7701 4.45819 30.4766C4.65504 30.1831 4.93472 29.9548 5.26167 29.8208C5.58861 29.6867 5.94805 29.6529 6.29426 29.7237C6.64047 29.7944 6.95781 29.9666 7.2059 30.2182C7.09935 29.8775 7.09765 29.5127 7.20104 29.1711C7.30442 28.8294 7.50812 28.5267 7.78569 28.3023C8.06325 28.0778 8.40187 27.942 8.7576 27.9124C9.11332 27.8829 9.46972 27.9609 9.78055 28.1364C9.93985 27.8861 10.1592 27.6797 10.4186 27.5358C10.6781 27.3919 10.9694 27.3152 11.266 27.3126C11.5627 27.31 11.8553 27.3817 12.1172 27.521C12.3791 27.6603 12.602 27.863 12.7656 28.1104C12.9769 27.7912 13.2853 27.5486 13.6453 27.4185C14.0052 27.2884 14.3975 27.2778 14.764 27.3881C15.1305 27.4985 15.4517 27.724 15.6799 28.0312C15.9082 28.3385 16.0314 28.7111 16.0312 29.0938Z" fill="#AD7D4D"/>
<path d="M16.0312 30.875H2.375V32.0625H16.0312V30.875Z" fill="#966342"/>
<path d="M30.2813 32.6564H13.7156C13.6762 32.461 13.6563 32.2621 13.6562 32.0627C13.6569 31.3795 13.8932 30.7174 14.3252 30.1881C14.7573 29.6587 15.3586 29.2946 16.0278 29.157C16.6971 29.0194 17.3933 29.1168 17.999 29.4328C18.6048 29.7488 19.0831 30.264 19.3533 30.8915C19.433 30.8804 19.5133 30.875 19.5938 30.8752C19.8523 30.8749 20.1078 30.9311 20.3424 31.0398C20.577 31.1485 20.785 31.3071 20.952 31.5046C21.3905 31.0996 21.9656 30.8748 22.5625 30.8748C23.1594 30.8748 23.7345 31.0996 24.173 31.5046C24.3516 31.2938 24.5768 31.1274 24.8308 31.0187C25.0848 30.91 25.3607 30.862 25.6365 30.8783C25.9122 30.8947 26.1805 30.975 26.4198 31.1129C26.6592 31.2509 26.8632 31.4426 27.0156 31.673C27.2269 31.3539 27.5353 31.1113 27.8953 30.9812C28.2552 30.8511 28.6475 30.8405 29.014 30.9508C29.3805 31.0612 29.7017 31.2867 29.9299 31.5939C30.1582 31.9011 30.2814 32.2737 30.2813 32.6564Z" fill="#AD7D4D"/>
<path d="M35.0312 32.0625H11.875V33.25H35.0312V32.0625Z" fill="#966342"/>
<path d="M31.7753 17.4279L36.2084 8.96473C36.5585 8.2956 36.6286 7.51478 36.4032 6.79398C36.1778 6.07319 35.6754 5.47142 35.0063 5.12102C34.3373 4.77062 33.5565 4.70027 32.8357 4.92545C32.1148 5.15063 31.5129 5.65289 31.1622 6.32179L26.7292 14.785C26.5168 15.1878 26.4048 15.6358 26.4026 16.0911C26.4004 16.5465 26.5081 16.9956 26.7165 17.4004L25.3435 20.0226L23.422 19.0622C23.2861 18.9944 23.1295 18.9812 22.9842 19.0253C22.8389 19.0693 22.7159 19.1672 22.6404 19.2989L18.9933 25.681C18.4447 26.6428 18.1495 27.7282 18.1354 28.8353C17.6625 28.6143 17.1469 28.4997 16.625 28.4998C16.5998 28.4998 16.5753 28.5013 16.55 28.5021C16.4182 27.9921 16.1208 27.5404 15.7046 27.2176C15.2883 26.8948 14.7767 26.7193 14.25 26.7186V21.9686H14.8438C16.5753 21.9665 18.2354 21.2778 19.4598 20.0534C20.6842 18.829 21.373 17.1689 21.375 15.4373V13.0623C21.3744 12.5901 21.1865 12.1374 20.8526 11.8035C20.5187 11.4696 20.066 11.2817 19.5938 11.2811H14.9922C13.949 11.2786 12.9198 11.5218 11.988 11.9908C11.0562 12.4599 10.2478 13.1417 9.6284 13.9812C8.96372 13.7653 8.26916 13.6556 7.57031 13.6561H2.96875C2.49653 13.6567 2.04382 13.8446 1.70991 14.1785C1.37599 14.5124 1.18813 14.9651 1.1875 15.4373V17.8123C1.18954 19.5439 1.87831 21.204 3.10272 22.4284C4.32712 23.6528 5.98718 24.3415 7.71875 24.3436H10.6875V26.7936C10.2765 26.9005 9.90155 27.1155 9.60169 27.4162C9.28747 27.3201 8.95674 27.2902 8.63038 27.3285C8.30403 27.3667 7.98916 27.4723 7.70568 27.6384C7.4222 27.8046 7.17627 28.0277 6.98345 28.2938C6.79062 28.5599 6.6551 28.863 6.58543 29.1841C6.28083 29.0975 5.96197 29.0727 5.64763 29.1112C5.3333 29.1497 5.02984 29.2507 4.75513 29.4082C4.48042 29.5658 4.24001 29.7767 4.04806 30.0286C3.85611 30.2804 3.71651 30.5682 3.63746 30.8748H2.375V32.0623H4.15625C4.23423 32.0624 4.31145 32.047 4.38349 32.0172C4.45554 31.9874 4.521 31.9436 4.57614 31.8885C4.63128 31.8333 4.67501 31.7679 4.70485 31.6958C4.73468 31.6238 4.75002 31.5466 4.75 31.4686C4.75 31.1536 4.87511 30.8516 5.09781 30.6289C5.32051 30.4062 5.62256 30.2811 5.9375 30.2811C6.25245 30.2811 6.55449 30.4062 6.77719 30.6289C6.99989 30.8516 7.125 31.1536 7.125 31.4686H8.3125C8.31287 30.9041 8.11121 30.3581 7.74399 29.9293C7.70777 29.7565 7.71056 29.5778 7.75218 29.4063C7.7938 29.2347 7.87319 29.0746 7.98455 28.9377C8.09592 28.8007 8.23646 28.6903 8.39591 28.6146C8.55537 28.5388 8.72972 28.4996 8.90625 28.4998C8.93149 28.4998 8.95597 28.5021 8.98047 28.5035C9.28148 28.5231 9.56385 28.6562 9.77051 28.876C9.97716 29.0957 10.0927 29.3857 10.0938 29.6873H11.2813C11.2815 29.094 11.059 28.5221 10.6578 28.085C10.8714 27.9518 11.122 27.8903 11.373 27.9095C11.624 27.9288 11.8623 28.0277 12.0531 28.1918C11.9354 28.4779 11.8749 28.7843 11.875 29.0936H13.0625C13.0624 28.811 13.1631 28.5376 13.3465 28.3226C13.5299 28.1077 13.784 27.9652 14.0631 27.9208C14.3422 27.8764 14.628 27.9331 14.869 28.0806C15.1101 28.2281 15.2906 28.4568 15.3781 28.7255C14.6986 28.9802 14.113 29.4361 13.6992 30.0323C13.2855 30.6285 13.0634 31.3367 13.0625 32.0623H14.25C14.2499 31.5717 14.4017 31.0931 14.6847 30.6923C14.9676 30.2915 15.3678 29.9882 15.8302 29.8241C16.2926 29.66 16.7944 29.6432 17.2667 29.7759C17.7391 29.9086 18.1587 30.1844 18.4679 30.5654C18.0905 30.7688 17.7751 31.0705 17.5552 31.4386C17.3353 31.8067 17.2191 32.2273 17.2188 32.6561H18.4063C18.4063 32.3411 18.5314 32.0391 18.7541 31.8164C18.9768 31.5937 19.2788 31.4686 19.5938 31.4686C19.9087 31.4686 20.2107 31.5937 20.4334 31.8164C20.6561 32.0391 20.7813 32.3411 20.7813 32.6561H21.9688C21.9689 32.3134 21.8944 31.9748 21.7506 31.6638C22.0018 31.5354 22.28 31.4685 22.5622 31.4686C22.8444 31.4687 23.1225 31.5359 23.3737 31.6645C23.2304 31.9755 23.1562 32.3137 23.1563 32.6561H24.3438C24.3438 32.3411 24.4689 32.0391 24.6916 31.8164C24.9143 31.5937 25.2163 31.4686 25.5313 31.4686C25.8462 31.4686 26.1482 31.5937 26.3709 31.8164C26.5936 32.0391 26.7188 32.3411 26.7188 32.6561H27.9063C27.9063 32.3468 27.8458 32.0404 27.7281 31.7543C27.9005 31.6066 28.1117 31.5114 28.3365 31.48C28.5614 31.4486 28.7906 31.4824 28.9968 31.5773C29.2031 31.6722 29.3778 31.8243 29.5002 32.0155C29.6226 32.2067 29.6876 32.429 29.6875 32.6561C29.6875 32.7341 29.7028 32.8113 29.7327 32.8833C29.7625 32.9554 29.8062 33.0208 29.8614 33.076C29.9165 33.1311 29.982 33.1749 30.054 33.2047C30.1261 33.2345 30.2033 33.2499 30.2813 33.2498H35.0313V32.0623H30.8C30.7116 31.7193 30.5474 31.4005 30.3197 31.1291C30.092 30.8578 29.8065 30.6408 29.484 30.4942C29.1616 30.3475 28.8104 30.2748 28.4562 30.2815C28.1021 30.2882 27.7539 30.374 27.4372 30.5327C27.5817 30.3032 27.7118 30.065 27.8268 29.8195L30.8193 23.4069C30.8846 23.2667 30.8926 23.1066 30.8417 22.9606C30.7909 22.8145 30.6852 22.6941 30.547 22.6247L28.31 21.5062L29.6652 18.9189C30.1094 18.8539 30.532 18.685 30.8987 18.4259C31.2653 18.1668 31.5657 17.8249 31.7753 17.4279ZM13.0625 27.0385C12.9591 27.0983 12.8604 27.1658 12.7671 27.2404C12.5046 27.0302 12.2006 26.8782 11.875 26.7943V23.7498C11.875 23.6719 11.8597 23.5946 11.8298 23.5226C11.8 23.4506 11.7563 23.3851 11.7011 23.3299C11.646 23.2748 11.5805 23.2311 11.5085 23.2012C11.4364 23.1714 11.3592 23.1561 11.2813 23.1561H10.0938C8.677 23.1545 7.31874 22.5909 6.31695 21.5891C5.31515 20.5873 4.75163 19.2291 4.75 17.8123V17.2186H3.5625V17.8123C3.56232 18.7761 3.77575 19.7279 4.18744 20.5993C4.59914 21.4706 5.19885 22.2399 5.94344 22.8518C4.90093 22.4833 3.99813 21.801 3.35915 20.8986C2.72016 19.9962 2.37636 18.9181 2.375 17.8123V15.4373C2.37521 15.2799 2.43783 15.129 2.54913 15.0177C2.66044 14.9064 2.81134 14.8438 2.96875 14.8436H7.57031C9.0264 14.8453 10.4223 15.4245 11.452 16.4541C12.4816 17.4837 13.0608 18.8797 13.0625 20.3358V27.0385ZM10.7558 14.4658C11.2698 13.8397 11.9165 13.3358 12.6492 12.9904C13.3819 12.6449 14.1822 12.4667 14.9922 12.4686H19.5938C19.7512 12.4688 19.9021 12.5314 20.0134 12.6427C20.1247 12.754 20.1873 12.9049 20.1875 13.0623V15.4373C20.1862 16.5436 19.842 17.6222 19.2025 18.5248C18.5629 19.4274 17.6593 20.1096 16.6161 20.4775C17.36 19.8647 17.9594 19.0952 18.3714 18.2239C18.7835 17.3526 18.9982 16.4011 19 15.4373V14.8436H17.8125V15.4373C17.81 16.542 17.4664 17.6189 16.8288 18.5209C16.1911 19.4229 15.2905 20.106 14.25 20.4768V20.3358C14.2492 19.1336 13.9242 17.9538 13.3092 16.9208C12.6943 15.8878 11.8122 15.0397 10.7558 14.4658ZM29.499 23.4285L26.7507 29.3177C26.5786 29.6862 26.3649 30.0338 26.1139 30.3538C25.777 30.2683 25.4254 30.2581 25.084 30.3237C24.7427 30.3894 24.42 30.5294 24.1389 30.7338C23.6666 30.4373 23.1201 30.2804 22.5625 30.2811C22.5358 30.2811 22.5091 30.2826 22.4823 30.2833L24.271 27.0029L23.229 26.4343L20.9119 30.6819C20.5556 30.4428 20.141 30.3053 19.7125 30.2841C19.6202 30.1235 19.5155 29.9704 19.3993 29.8261C19.1887 28.6042 19.4099 27.347 20.025 26.2703L23.393 20.3759L24.792 21.075L23.6691 23.2192C23.5679 23.4121 23.5058 23.623 23.4861 23.8399C23.4665 24.0569 23.4898 24.2755 23.5547 24.4835C23.6196 24.6914 23.7248 24.8845 23.8644 25.0517C24.0039 25.219 24.175 25.3571 24.368 25.4582C24.5609 25.5593 24.7718 25.6214 24.9888 25.6409C25.2057 25.6605 25.4244 25.6371 25.6323 25.5721C25.8402 25.5071 26.0332 25.4018 26.2004 25.2622C26.3676 25.1226 26.5057 24.9514 26.6067 24.7585L27.7586 22.5586L29.499 23.4285ZM25.555 24.207C25.5148 24.2835 25.4545 24.3474 25.3806 24.3921C25.3067 24.4367 25.222 24.4602 25.1357 24.4601C25.0433 24.4601 24.9531 24.4324 24.8766 24.3807C24.7795 24.3165 24.7097 24.2185 24.6809 24.1058C24.6521 23.993 24.6663 23.8735 24.7208 23.7706L27.5426 18.3823C27.7241 18.5194 27.9214 18.634 28.1304 18.7237C28.2114 18.7588 28.2941 18.7898 28.3783 18.8165L25.555 24.207ZM28.598 17.6327C28.3876 17.5424 28.1982 17.4096 28.0416 17.2427C27.885 17.0757 27.7646 16.8782 27.688 16.6625C27.6113 16.4468 27.5801 16.2176 27.5962 15.9893C27.6123 15.761 27.6754 15.5384 27.7816 15.3357L32.2147 6.8725C32.4101 6.50352 32.7367 6.22122 33.1301 6.08133C33.5235 5.94145 33.955 5.95416 34.3395 6.11694C34.5499 6.20724 34.7393 6.34004 34.8959 6.50699C35.0525 6.67395 35.1729 6.87146 35.2495 7.08715C35.3262 7.30283 35.3574 7.53203 35.3413 7.76036C35.3252 7.98869 35.2621 8.21124 35.1559 8.41403L30.7229 16.8772C30.5275 17.2462 30.2008 17.5285 29.8074 17.6683C29.414 17.8082 28.9825 17.7955 28.598 17.6327H28.598Z" fill="black"/>
</svg>
