<svg width="28" height="27" viewBox="0 0 28 27" fill="none" xmlns="http://www.w3.org/2000/svg">
<path d="M27.5871 14.6562C27.5871 18.3472 25.2014 21.3675 22.2854 21.3675H19.1748C18.3669 21.3675 17.5991 21.1355 16.9123 20.7213C14.9288 19.5273 13.873 17.0497 13.873 14.6562C13.873 12.903 14.5242 11.3333 15.5361 10.316C16.118 9.73026 16.5756 8.98877 16.8869 8.15905C17.1114 7.56176 17.2599 6.91939 17.3259 6.25502C17.3517 5.99589 17.3647 5.73313 17.3647 5.46845C17.3647 3.12563 18.8796 1.20898 20.7302 1.20898C21.6556 1.20898 22.4971 1.68814 23.107 2.46018C23.7169 3.23244 24.0954 4.29714 24.0954 5.46845C24.0954 7.35112 24.7602 9.1445 25.9245 10.316C26.4299 10.8247 26.8458 11.4715 27.1351 12.21C27.4243 12.9492 27.5871 13.7797 27.5871 14.6562Z" fill="#35E298"/>
<path d="M20.4441 12.5284C20.4029 13.7978 20.0372 15.0411 19.413 16.1746L16.9123 20.7211C14.9288 19.5272 13.873 17.0496 13.873 14.6561C13.873 12.9029 14.5244 11.3332 15.5363 10.3159C16.118 9.73013 16.5756 8.98864 16.8871 8.15892C17.1114 7.56163 17.2599 6.91926 17.3259 6.25488C18.3169 6.78659 19.3745 7.77653 20.0069 9.61413C20.3331 10.5622 20.4766 11.5472 20.4441 12.5284Z" fill="#1AB975"/>
<path d="M24.8313 14.8869C24.8313 17.0932 23.0429 18.8817 20.8366 18.8817C18.6303 18.8817 16.8418 17.0932 16.8418 14.8869C16.8418 12.6806 18.6303 10.8921 20.8366 10.8921C23.0429 10.8921 24.8313 12.6806 24.8313 14.8869Z" fill="#AE583E"/>
<path d="M20.3387 10.9229C16.8126 11.3616 15.5864 15.8659 18.3862 18.0417L19.4131 16.1744C20.0373 15.0409 20.403 13.7976 20.4442 12.5282C20.4618 11.992 20.4272 11.4546 20.3387 10.9229Z" fill="#7C3F2C"/>
<path d="M9.03243 4.13782C8.82372 3.18719 7.74683 -0.25516 3.1979 0.527988C3.06524 0.550846 2.99133 0.694402 3.04922 0.815741C3.52026 1.80546 5.51915 5.47319 8.84615 4.4527C8.98073 4.41147 9.06255 4.27539 9.03243 4.13782Z" fill="#1ED688"/>
<path d="M8.84584 4.4524C5.51906 5.4731 3.52039 1.80537 3.04914 0.815433C2.99146 0.693881 3.06516 0.550325 3.19761 0.52768C3.58704 0.460602 3.9517 0.424286 4.292 0.415527C4.98992 1.64686 6.55237 3.79614 8.89305 3.63058C8.9597 3.83417 9.00414 4.00913 9.03212 4.13773C9.06246 4.2753 8.98042 4.41095 8.84584 4.4524Z" fill="#1AB975"/>
<path d="M17.0635 16.1744L14.1607 21.4518C13.4101 22.6818 11.7021 23.1285 10.3544 22.4259C9.66372 22.0655 8.84874 22.0655 8.15745 22.4259C6.84067 23.1123 5.12227 22.713 4.35151 21.4518L1.44835 16.1744C0.259106 14.0131 0.13969 11.6947 0.854265 9.61374C1.74636 7.02119 3.48655 6.11649 4.68861 5.80417C5.24041 5.66062 5.67919 5.64182 5.87103 5.64182C5.93939 5.64182 5.97613 5.64395 5.97613 5.64395C6.51959 5.64395 7.04041 5.73538 7.52042 5.90201C8.00001 6.06864 8.44008 6.3111 8.82225 6.61317C8.94701 6.71977 9.10167 6.7736 9.25612 6.7736C9.41079 6.7736 9.56524 6.71977 9.69021 6.61317C10.0724 6.3111 10.5118 6.06864 10.9918 5.90201C11.4721 5.73538 11.9922 5.64395 12.5361 5.64395C12.5361 5.64395 16.2115 5.40982 17.6576 9.61374C18.3779 11.7081 18.2461 14.027 17.0635 16.1744Z" fill="#C42D2D"/>
<path d="M17.0633 16.1744L14.1605 21.4518C13.4098 22.6818 11.7019 23.1285 10.3542 22.4259C9.66351 22.0655 8.84853 22.0655 8.15724 22.4259C7.78639 22.619 7.39011 22.7235 7.00281 22.7508C6.9806 22.7066 4.6758 17.6375 4.0879 16.3453C2.33041 12.4814 3.01188 8.17583 4.6884 5.80417C5.2402 5.66062 5.67898 5.64182 5.87082 5.64182C5.93918 5.64182 5.97592 5.64395 5.97592 5.64395C6.51938 5.64395 7.0402 5.73538 7.52021 5.90201C7.9998 6.06864 8.43987 6.3111 8.82204 6.61317C8.9468 6.71977 9.10146 6.7736 9.25591 6.7736C9.41058 6.7736 9.56503 6.71977 9.69 6.61317C10.0722 6.3111 10.5116 6.06864 10.9916 5.90201C11.4718 5.73538 11.992 5.64395 12.5359 5.64395C12.5359 5.64395 16.2113 5.40982 17.6573 9.61374C18.3777 11.7081 18.2459 14.027 17.0633 16.1744Z" fill="#F44545"/>
<path d="M4.02024 17.4881C3.5571 17.7325 3.38001 18.3059 3.62439 18.769C3.91086 19.312 4.27317 19.7835 4.67393 20.192L1.51207 19.8397C0.991683 19.7816 0.52299 20.1565 0.464884 20.6767C0.406992 21.1971 0.781689 21.6657 1.30208 21.7239L4.46394 22.0761C3.98328 22.3863 3.52591 22.7666 3.12686 23.2333C2.78656 23.6311 2.83334 24.2295 3.23111 24.5698C3.62909 24.9101 4.22724 24.8633 4.56755 24.4655C5.65084 23.1989 7.61426 22.6559 9.27605 22.6014C9.93551 22.5803 10.3734 21.9052 10.1214 21.294C10.0071 21.0168 9.7614 20.7993 9.45165 20.7301C9.42153 20.7232 6.41732 19.9995 5.30092 17.8842C5.05653 17.421 4.48317 17.2439 4.02024 17.4881Z" fill="#1AB975"/>
<path d="M27.4822 23.6924C27.347 24.9066 26.3214 25.8263 25.0992 25.8284C18.0927 25.8421 22.9897 25.8327 11.7124 25.8543C9.36958 25.8585 7.54437 23.8227 7.80392 21.4946C7.86096 20.9832 8.01349 20.5075 8.23993 20.0817C8.912 18.8213 10.2414 18.0029 11.6994 18.0029C11.9886 18.0029 12.2834 18.0348 12.5787 18.1025C22.515 20.3727 23.2858 20.5487 23.9311 20.6961L24.7418 20.8815L25.6294 21.0845C26.598 21.3049 27.3057 22.0887 27.4636 23.0263C27.5004 23.2414 27.5076 23.4651 27.4822 23.6924Z" fill="#FFA90B"/>
<path d="M27.4639 23.0263C27.0238 23.6016 26.3308 23.9684 25.5599 23.9695C18.5538 23.9833 23.4507 23.9739 12.1737 23.9953C9.98149 23.9991 8.24301 22.2179 8.24023 20.0817C8.9123 18.8213 10.2415 18.0029 11.6995 18.0029C11.8563 18.0029 12.0141 18.0123 12.1731 18.032C12.3079 18.048 12.4437 18.0717 12.579 18.1025L12.9842 18.1948C23.4794 20.5933 14.123 18.4552 23.9314 20.6961L24.7421 20.8815L25.6297 21.0845C26.5983 21.3049 27.306 22.0887 27.4639 23.0263Z" fill="#FFB52D"/>
<path d="M1.4707 20.25C1.47318 20.2503 1.47621 20.2506 1.47923 20.2511C1.47676 20.2508 1.47373 20.2503 1.4707 20.25Z" fill="black"/>
<path d="M1.4873 20.252C1.49006 20.252 1.49189 20.2524 1.49281 20.2524C1.49189 20.2524 1.49052 20.252 1.4873 20.252Z" fill="black"/>
<path d="M25.7212 20.6822L25.4166 20.6124C28.3689 18.1935 28.998 12.8232 26.2173 10.0249C25.147 8.94867 24.5081 7.24523 24.5081 5.4683C24.5081 2.89241 22.8136 0.796319 20.7303 0.796319C18.6475 0.796319 16.9526 2.89241 16.9526 5.4683C16.9526 6.05363 16.8832 6.63042 16.7518 7.17922C14.811 4.93936 11.729 4.68237 9.66819 6.11451V0.860193C9.66819 0.632469 9.48341 0.447683 9.25568 0.447683C9.02796 0.447683 8.84317 0.632469 8.84317 0.860193V2.4799C7.61142 0.257344 5.36964 -0.337175 2.85912 0.168262C2.60555 0.219532 2.46092 0.489554 2.55876 0.729241C2.58184 0.785424 3.13726 2.12464 4.21094 3.29701C5.48136 4.68515 7.05813 5.3743 8.84317 4.87997V6.11451C6.42067 4.43115 2.36415 5.03549 0.697667 8.87369C0.606876 9.08283 0.703221 9.32529 0.912146 9.41608C1.12107 9.50688 1.36375 9.41117 1.45454 9.20203C2.97961 5.69004 6.62639 5.40613 8.56055 6.9297C8.96323 7.26851 9.55049 7.2668 9.95082 6.9297C12.1529 5.19528 15.962 5.95023 17.267 9.74485C17.9688 11.7886 17.8287 13.9257 16.6106 16.1367C16.1259 17.0034 15.7279 17.724 15.3989 18.3238C12.8442 17.7735 12.4797 17.5725 11.6103 17.5913C11.3825 17.5958 11.2016 17.7838 11.2065 18.0115C11.2108 18.2396 11.3983 18.4212 11.6271 18.4157C11.7769 18.4125 11.9467 18.4202 12.1259 18.4422L11.8784 20.6639C11.8531 20.8901 12.0164 21.0941 12.2428 21.1193C12.4701 21.1445 12.6733 20.9807 12.6985 20.7551L12.9377 18.6073C14.5854 18.9835 15.6578 19.2287 16.9355 19.5208L16.8174 20.5803C16.7922 20.8068 16.9554 21.0106 17.1818 21.036C17.4091 21.061 17.6123 20.8974 17.6372 20.6716L17.7449 19.7058C17.9996 19.7641 23.8542 21.1014 23.9276 21.1182L23.6091 23.978C23.5839 24.2045 23.7469 24.4085 23.9734 24.4337C24.2007 24.4589 24.4038 24.2951 24.429 24.0695L24.7373 21.303L25.5377 21.4863C26.53 21.7128 27.1852 22.6346 27.072 23.6465C26.9598 24.6529 26.1113 25.4136 25.0987 25.4157L20.8769 25.4239L21.0268 24.0789C21.052 23.8524 20.889 23.6484 20.6626 23.6232C20.4359 23.598 20.2321 23.761 20.2069 23.9874L20.0467 25.4256L16 25.4333L16.141 24.1688C16.1662 23.9426 16.003 23.7386 15.7766 23.7134C15.5508 23.6879 15.3463 23.8511 15.3211 24.0776C15.2861 24.3927 15.1735 25.4014 15.1701 25.435L13.2327 25.4386L13.478 23.2376C13.5032 23.0114 13.34 22.8074 13.1135 22.782C12.8869 22.7567 12.6833 22.92 12.6579 23.1464L12.4024 25.4403C12.3981 25.4403 12.3953 25.4403 12.393 25.4403H12.3932C12.393 25.4403 12.3925 25.4403 12.3921 25.4403C12.3915 25.4403 12.3908 25.4403 12.3902 25.4403C12.3902 25.4403 12.39 25.4403 12.3898 25.4403C12.3868 25.4403 12.3866 25.4403 12.3876 25.4403C12.3609 25.4403 12.2315 25.4405 11.7045 25.4416C10.0854 25.4416 8.69748 24.3371 8.30292 22.811C7.8981 21.2522 8.60691 19.5116 10.2025 18.7534C10.4082 18.6556 10.496 18.4097 10.3981 18.204C10.3003 17.9983 10.0544 17.9102 9.84871 18.0081C9.04462 18.3898 8.39585 18.9916 7.96411 19.7273C7.12926 19.311 6.17436 18.656 5.66508 17.6913C5.0069 16.4411 3.10863 16.9107 3.10223 18.3221L1.8098 15.9727C0.923895 14.363 0.599399 12.5564 0.984992 10.6919C1.03113 10.4686 0.887579 10.2503 0.664341 10.2041C0.441103 10.158 0.223206 10.3013 0.177063 10.5248C-0.236514 12.5256 0.0775143 14.5356 1.08668 16.3704L2.84887 19.5733L1.55751 19.4293C0.810247 19.3462 0.13797 19.8833 0.05487 20.631C-0.0280164 21.3761 0.510318 22.0505 1.25608 22.1334L3.39425 22.3716C2.86403 22.8463 2.43721 23.2765 2.49083 23.955C2.58355 25.154 4.09238 25.6539 4.88087 24.7332C5.52986 23.9738 6.54393 23.5046 7.5719 23.2515C8.13074 24.9983 9.7718 26.2664 11.7045 26.2664C12.3329 26.2653 24.341 26.242 25.1 26.2405C26.6593 26.2378 27.9098 24.9742 27.9098 23.4237C27.9096 22.1039 27.0098 20.9764 25.7212 20.6822ZM3.54763 0.887751C6.29036 0.513053 8.01987 1.82044 8.59729 4.0917C6.36278 4.69348 4.60572 2.92701 3.54763 0.887751ZM24.3408 20.3665L16.238 18.5152C16.4724 18.0863 16.7319 17.6129 17.0212 17.0921C17.7851 18.408 19.2095 19.2945 20.8369 19.2945C22.9307 19.2945 24.7484 17.8064 25.1585 15.756C25.2032 15.5328 25.0579 15.3155 24.8347 15.2711C24.6108 15.2265 24.3942 15.3711 24.3496 15.5943C24.0163 17.2602 22.5391 18.4697 20.8369 18.4697C19.33 18.4697 18.0376 17.534 17.5091 16.2136C18.1944 14.9092 18.5227 13.5309 18.5116 12.1637C20.5812 10.3941 23.7721 11.5102 24.338 14.1248C24.3865 14.3476 24.6053 14.489 24.8285 14.4405C25.0513 14.3923 25.1927 14.1727 25.1442 13.9501C24.9347 12.9815 24.3936 12.1009 23.6219 11.4707C22.1556 10.2742 20.0602 10.1392 18.4462 11.1858C18.3089 10.1018 17.9485 8.97196 17.3726 8.03073C17.6372 7.23327 17.7774 6.36531 17.7774 5.4683C17.7774 3.56511 18.9628 1.62134 20.7303 1.62134C22.4788 1.62134 23.683 3.53905 23.683 5.4683C23.683 7.48791 24.3936 9.36054 25.6322 10.6068C27.7804 12.767 27.5725 16.7776 25.7063 19.1401C25.301 19.6532 24.8396 20.0657 24.3408 20.3665ZM7.3963 22.4393C6.22115 22.7251 5.03211 23.287 4.25388 24.197C4.06183 24.4213 3.72302 24.4478 3.49871 24.256C3.27377 24.0628 3.24749 23.7255 3.43975 23.5012C3.79907 23.0815 4.2291 22.7162 4.68711 22.4222C5.01182 22.2122 4.89411 21.7087 4.50894 21.666C4.15176 21.6262 1.61753 21.3436 1.3473 21.3135C1.05399 21.281 0.841863 21.0155 0.874121 20.7224C0.906592 20.4325 1.16636 20.217 1.46607 20.2494C1.46778 20.2496 1.46928 20.2496 1.47099 20.2499C1.47013 20.2499 1.46928 20.2496 1.46864 20.2496C1.47056 20.2499 1.47377 20.2501 1.47846 20.2507C1.47825 20.2507 1.47782 20.2507 1.47761 20.2505C1.4821 20.2511 1.4853 20.2514 1.48722 20.2516C1.48551 20.2516 1.48338 20.2514 1.48124 20.2509C1.56562 20.2603 2.05846 20.3152 4.33847 20.5694C4.46964 20.5611 4.86933 20.7309 5.04407 20.3725C5.12055 20.2153 5.08979 20.0277 4.9676 19.9027C4.56726 19.4947 4.23785 19.0482 3.98877 18.5763C3.85055 18.3151 3.95138 17.9906 4.21201 17.8526H4.21243C4.47605 17.7139 4.79755 17.8158 4.93577 18.0764C5.54353 19.2281 6.65822 19.9941 7.6174 20.471C7.39843 21.0885 7.3164 21.7747 7.3963 22.4393Z" fill="black"/>
</svg>
