<svg width="34" height="34" viewBox="0 0 34 34" fill="none" xmlns="http://www.w3.org/2000/svg">
<path d="M31.3069 11.3333H30.5986V8.5H18.1321V11.3333H17.4238C16.8602 11.3333 16.3197 11.5572 15.9212 11.9557C15.5227 12.3542 15.2988 12.8947 15.2988 13.4583V30.5996C15.2988 31.3511 15.5973 32.0717 16.1287 32.6031C16.66 33.1344 17.3807 33.4329 18.1321 33.4329H30.5986C31.35 33.4329 32.0707 33.1344 32.602 32.6031C33.1334 32.0717 33.4319 31.3511 33.4319 30.5996V13.4583C33.4319 12.8947 33.208 12.3542 32.8095 11.9557C32.411 11.5572 31.8705 11.3333 31.3069 11.3333Z" fill="#F7E1DB"/>
<path d="M15.2988 16.4331H33.4319V30.0329H15.2988V16.4331Z" fill="#FA5D3F"/>
<path d="M19.832 19.2666H30.5985V24.3665H19.832V19.2666Z" fill="#FAC850"/>
<path d="M17.8483 0.566895H30.8814C31.2571 0.566895 31.6175 0.716148 31.8831 0.98182C32.1488 1.24749 32.298 1.60782 32.298 1.98354V7.79178C32.298 7.97964 32.2234 8.1598 32.0906 8.29264C31.9578 8.42547 31.7776 8.5001 31.5897 8.5001H17.14C16.9521 8.5001 16.7719 8.42547 16.6391 8.29264C16.5063 8.1598 16.4316 7.97964 16.4316 7.79178V1.98354C16.4316 1.60782 16.5809 1.24749 16.8466 0.98182C17.1122 0.716148 17.4726 0.566895 17.8483 0.566895Z" fill="#FA5D3F"/>
<path d="M10.7659 6.80029L11.7676 8.63187L13.5992 9.63358L11.7676 10.6353L10.7659 12.4669L9.7642 10.6353L7.93262 9.63358L9.7642 8.63187L10.7659 6.80029Z" fill="#DCF9FE"/>
<path d="M13.1752 15.2998H12.8918C10.1535 15.2998 7.93359 17.5197 7.93359 20.2581V28.4746C7.93359 31.213 10.1535 33.4328 12.8918 33.4328H13.1752C15.9135 33.4328 18.1334 31.213 18.1334 28.4746V20.2581C18.1334 17.5197 15.9135 15.2998 13.1752 15.2998Z" fill="#79D8EB"/>
<path d="M11.9004 23.7993H18.1336V26.0659H13.0337L11.9004 23.7993Z" fill="#FFF9F8"/>
<path d="M3.83193 3.81787L3.13069 5.1L1.84863 5.80117L3.13069 6.50241L3.83193 7.78447L4.5331 6.50241L5.81523 5.80117L4.5331 5.1L3.83193 3.81787Z" fill="#DCF9FE"/>
<path d="M6.79964 33.4328C10.2422 33.4328 13.0329 30.6421 13.0329 27.1995C13.0329 23.757 10.2422 20.9663 6.79964 20.9663C3.35712 20.9663 0.566406 23.757 0.566406 27.1995C0.566406 30.6421 3.35712 33.4328 6.79964 33.4328Z" fill="#FAC850"/>
<path d="M1.66113 23.6646L3.26364 22.062L11.9313 30.7297L10.3288 32.3322L1.66113 23.6646Z" fill="#FFFDFA"/>
<path d="M19.834 23.7996V24.9329H30.6005C30.7508 24.9329 30.8949 24.8732 31.0012 24.767C31.1074 24.6607 31.1671 24.5166 31.1671 24.3663V19.2664C31.1671 19.1161 31.1074 18.9719 31.0012 18.8657C30.8949 18.7594 30.7508 18.6997 30.6005 18.6997H19.834V19.833H30.0338V23.7996H19.834Z" fill="black"/>
<path d="M32.8666 29.4662H19.8335V30.5995H32.8666C32.8659 31.2004 32.6269 31.7766 32.202 32.2015C31.777 32.6264 31.2009 32.8655 30.6 32.8661H18.1335C17.9811 32.8662 17.829 32.851 17.6796 32.8208L17.4541 33.9314C17.6777 33.9767 17.9053 33.9995 18.1335 33.9994H30.6C31.5014 33.9984 32.3656 33.6399 33.003 33.0025C33.6404 32.3651 33.9989 31.5009 33.9999 30.5995V19.833H32.8666V29.4662Z" fill="black"/>
<path d="M31.3072 10.7665H31.1655V9.06652H31.5905C31.9285 9.06614 32.2526 8.9317 32.4916 8.69267C32.7306 8.45365 32.8651 8.12957 32.8655 7.79154V1.9833C32.8649 1.45748 32.6557 0.953359 32.2839 0.581546C31.9121 0.209732 31.408 0.000588684 30.8822 0H20.399V1.13331H30.8822C31.1075 1.13357 31.3236 1.22321 31.4829 1.38255C31.6423 1.5419 31.7319 1.75795 31.7321 1.9833V7.79154C31.7321 7.8291 31.7172 7.86511 31.6906 7.89167C31.6641 7.91823 31.628 7.93317 31.5905 7.9332H17.1407C17.1032 7.93317 17.0671 7.91823 17.0406 7.89167C17.014 7.86511 16.9991 7.8291 16.9991 7.79154V1.9833C16.9993 1.75795 17.0889 1.5419 17.2483 1.38255C17.4076 1.22321 17.6237 1.13357 17.849 1.13331H19.2657V0H17.849C17.3232 0.000588684 16.8191 0.209732 16.4473 0.581546C16.0755 0.953359 15.8663 1.45748 15.8657 1.9833V7.79154C15.8661 8.12957 16.0006 8.45365 16.2396 8.69267C16.4786 8.9317 16.8027 9.06614 17.1407 9.06652H17.5657V10.7665H17.424C16.7104 10.7673 16.0263 11.0511 15.5217 11.5557C15.0171 12.0603 14.7332 12.7445 14.7324 13.4581V13.5998H15.8657V13.4581C15.8662 13.045 16.0305 12.6489 16.3227 12.3567C16.6148 12.0646 17.0109 11.9003 17.424 11.8998H31.3072C31.7203 11.9003 32.1164 12.0646 32.4085 12.3567C32.7007 12.6489 32.865 13.045 32.8655 13.4581V15.8664H18.699V16.9997H32.8655V18.6997H33.9988V13.4581C33.998 12.7445 33.7141 12.0603 33.2095 11.5557C32.7049 11.0511 32.0208 10.7673 31.3072 10.7665ZM18.699 10.7665V9.06652H30.0322V10.7665H18.699Z" fill="black"/>
<path d="M18.1328 2.2666H19.2661V6.79986H18.1328V2.2666Z" fill="black"/>
<path d="M20.3994 2.2666H21.5327V6.79986H20.3994V2.2666Z" fill="black"/>
<path d="M22.666 2.2666H23.7993V6.79986H22.666V2.2666Z" fill="black"/>
<path d="M24.9336 2.2666H26.0669V6.79986H24.9336V2.2666Z" fill="black"/>
<path d="M27.1992 2.2666H28.3325V6.79986H27.1992V2.2666Z" fill="black"/>
<path d="M29.4658 2.2666H30.5991V6.79986H29.4658V2.2666Z" fill="black"/>
<path d="M19.834 26.6328H23.2339V27.7661H19.834V26.6328Z" fill="black"/>
<path d="M24.3662 26.6328H31.1661V27.7661H24.3662V26.6328Z" fill="black"/>
<path d="M7.66196 10.1301L9.34793 11.0521L10.27 12.7381C10.3188 12.8273 10.3907 12.9018 10.4782 12.9536C10.5656 13.0055 10.6655 13.0329 10.7672 13.0329C10.8689 13.0329 10.9687 13.0055 11.0562 12.9536C11.1436 12.9018 11.2155 12.8273 11.2643 12.7381L12.1864 11.0521L13.8724 10.1301C13.9616 10.0813 14.036 10.0094 14.0879 9.92188C14.1398 9.83441 14.1671 9.73458 14.1671 9.63289C14.1671 9.53119 14.1398 9.43137 14.0879 9.34389C14.036 9.25642 13.9616 9.18451 13.8724 9.13572L12.1864 8.21365L11.2643 6.52768C11.2155 6.43846 11.1436 6.36401 11.0562 6.31214C10.9687 6.26028 10.8689 6.23291 10.7672 6.23291C10.6655 6.23291 10.5656 6.26028 10.4782 6.31214C10.3907 6.36401 10.3188 6.43846 10.27 6.52768L9.34793 8.21365L7.66196 9.13572C7.57273 9.18451 7.49828 9.25642 7.44642 9.34389C7.39456 9.43137 7.36719 9.53119 7.36719 9.63289C7.36719 9.73458 7.39456 9.83441 7.44642 9.92188C7.49828 10.0094 7.57273 10.0813 7.66196 10.1301ZM10.0374 9.12835C10.1324 9.07634 10.2106 8.99817 10.2626 8.9031L10.7672 7.98054L11.2717 8.90309C11.3237 8.99815 11.4019 9.07632 11.4969 9.12834L12.4195 9.63289L11.497 10.1374C11.4019 10.1894 11.3237 10.2676 11.2717 10.3627L10.7672 11.2852L10.2626 10.3627C10.2106 10.2676 10.1324 10.1895 10.0374 10.1374L9.11482 9.63289L10.0374 9.12835Z" fill="black"/>
<path d="M18.6992 20.2578C18.6976 18.793 18.1149 17.3887 17.0792 16.3529C16.0434 15.3172 14.6391 14.7346 13.1743 14.7329H12.891C11.618 14.7355 10.3847 15.1764 9.39862 15.9815C8.41253 16.7866 7.73379 17.9067 7.47656 19.1535L8.58725 19.3789C8.79184 18.388 9.33141 17.4979 10.1152 16.8582C10.899 16.2184 11.8792 15.8681 12.891 15.8662H13.1743C14.3386 15.8675 15.4549 16.3306 16.2782 17.1539C17.1015 17.9772 17.5646 19.0935 17.5659 20.2578V23.2328H14.166V24.3661H17.5659V25.4994H14.7326V26.6327H17.5659V28.4744C17.5646 29.6387 17.1015 30.7549 16.2782 31.5782C15.4549 32.4015 14.3386 32.8646 13.1743 32.8659H12.891C12.422 32.8665 11.956 32.7918 11.5106 32.6448L11.1547 33.7207C11.7149 33.9058 12.3011 33.9998 12.891 33.9993H13.1743C14.6391 33.9976 16.0434 33.415 17.0792 32.3792C18.1149 31.3435 18.6976 29.9391 18.6992 28.4744V20.2578Z" fill="black"/>
<path d="M1.57697 6.29811L2.71346 6.91965L3.33501 8.05615C3.38381 8.14536 3.45572 8.21981 3.54319 8.27166C3.63067 8.32352 3.73049 8.35089 3.83218 8.35089C3.93387 8.35089 4.03369 8.32352 4.12117 8.27166C4.20865 8.21981 4.28055 8.14536 4.32936 8.05615L4.9509 6.91965L6.0874 6.29811C6.17662 6.24931 6.25106 6.1774 6.30292 6.08992C6.35478 6.00245 6.38214 5.90263 6.38214 5.80094C6.38214 5.69924 6.35478 5.59942 6.30292 5.51195C6.25106 5.42447 6.17662 5.35256 6.0874 5.30376L4.9509 4.68222L4.32939 3.54572C4.28058 3.4565 4.20867 3.38206 4.1212 3.3302C4.03372 3.27834 3.9339 3.25098 3.83221 3.25098C3.73052 3.25098 3.6307 3.27834 3.54322 3.3302C3.45575 3.38206 3.38384 3.4565 3.33504 3.54572L2.71349 4.68222L1.57697 5.30373C1.48775 5.35253 1.41331 5.42444 1.36145 5.51192C1.30959 5.5994 1.28223 5.69921 1.28223 5.80091C1.28223 5.9026 1.30959 6.00242 1.36145 6.08989C1.41331 6.17737 1.48775 6.24928 1.57697 6.29808V6.29811ZM3.4029 5.59691C3.49797 5.5449 3.57614 5.46673 3.62815 5.37166L3.83214 4.99858L4.03614 5.37166C4.08815 5.46673 4.16632 5.5449 4.26139 5.59691L4.63447 5.8009L4.26139 6.0049C4.16632 6.05691 4.08815 6.13508 4.03614 6.23015L3.83214 6.60323L3.62815 6.23022C3.57613 6.13515 3.49797 6.05698 3.4029 6.00497L3.02982 5.80097L3.4029 5.59691Z" fill="black"/>
<path d="M13.5998 27.1998C13.5998 25.8549 13.201 24.5402 12.4538 23.422C11.7066 22.3037 10.6446 21.4322 9.4021 20.9175C8.15958 20.4028 6.79235 20.2682 5.4733 20.5306C4.15425 20.7929 2.94263 21.4406 1.99164 22.3915C1.04066 23.3425 0.393036 24.5541 0.130661 25.8732C-0.131714 27.1922 0.0029463 28.5595 0.517614 29.802C1.03228 31.0445 1.90384 32.1065 3.02208 32.8537C4.14031 33.6009 5.455 33.9997 6.79989 33.9997C8.60271 33.9976 10.3311 33.2806 11.6059 32.0058C12.8807 30.731 13.5977 29.0026 13.5998 27.1998ZM12.4665 27.1998C12.4676 28.1122 12.247 29.0112 11.8237 29.8195L4.18019 22.1759C5.04379 21.7253 6.00899 21.5049 6.9826 21.5361C7.9562 21.5673 8.90532 21.849 9.73829 22.3541C10.5713 22.8591 11.2599 23.5703 11.7378 24.4192C12.2157 25.268 12.4667 26.2257 12.4665 27.1998ZM10.3843 31.5856L5.5006 26.7019L4.69924 27.5032L9.41959 32.2236C8.35058 32.7815 7.13147 32.9837 5.9396 32.8008C4.74774 32.618 3.6453 32.0596 2.79267 31.207C1.94003 30.3544 1.38169 29.2519 1.19886 28.06C1.01602 26.8682 1.21824 25.6491 1.77609 24.5801L3.66317 26.4671L4.46453 25.6658L2.41412 23.6154C2.65405 23.3224 2.92251 23.0539 3.21553 22.814L11.1857 30.7842C10.9457 31.0772 10.6773 31.3456 10.3843 31.5856Z" fill="black"/>
</svg>
